<?xml version="1.0" encoding="UTF-8"?>
<svg width="1225px" height="1823px" viewBox="0 0 1225 1823" version="1.1" xmlns="http://www.w3.org/2000/svg" xmlns:xlink="http://www.w3.org/1999/xlink">
    <title>a person/sitting</title>
    <g id="Introduction" stroke="none" stroke-width="1" fill="none" fill-rule="evenodd">
        <g id="Group" transform="translate(-522.000000, -245.000000)">
            <g id="a-person/sitting" transform="translate(823.500000, 1250.000000) scale(-1, 1) translate(-823.500000, -1250.000000) ">
                <g id="BODY" transform="translate(-81.000000, 637.000000)">
                    <path d="M209.845083,315.920067 C198.023083,322.555067 188.211083,327.087067 178.966083,330.183067 L165.370083,334.735067 L178.157083,341.223067 C186.842083,345.630067 195.101083,351.250067 203.405083,358.407067 L209.814083,363.932067 L212.907083,356.056067 C216.969083,345.710067 218.946083,333.941067 218.782083,321.076067 L218.652083,310.978067 L209.845083,315.920067 Z M777.742083,349.336067 C766.678083,369.324067 753.322083,389.002067 740.405083,408.032067 C711.897083,450.032067 682.418083,493.463067 673.341083,545.399067 C672.635083,549.703733 672.130416,559.435067 671.827083,574.593067 L680.277083,571.148067 C708.495083,559.642067 738.434083,551.083067 767.386083,542.807067 C778.577083,539.608067 790.147083,536.301067 801.488083,532.861067 C806.106083,531.624067 810.699083,530.178067 815.143083,528.779067 C825.924083,525.386067 836.109083,522.180067 846.817083,521.634067 L850.077083,521.468067 L851.708083,518.640067 C866.461083,493.060067 855.397083,468.677067 842.728083,445.892067 C835.118083,429.283067 825.330083,413.679067 815.862083,398.584067 C806.049083,382.940067 795.902083,366.764067 788.488083,349.835067 L783.619083,338.720067 L777.742083,349.336067 Z M233.238083,561.232067 C250.010083,578.828067 265.589083,596.707067 279.543083,614.372067 L290.139083,609.497067 C285.017083,583.404067 269.115083,565.022067 240.093083,551.643067 L233.238083,561.232067 Z M794.324083,954.326067 C792.645083,954.326067 791.070083,954.978067 789.890083,956.161067 C788.693083,957.362067 788.036083,958.980067 788.041054,960.714067 L794.324083,960.694067 L794.324083,954.326067 Z M96.4020827,1389.37607 C86.5480827,1372.44407 85.1000827,1345.86107 99.8680827,1331.44907 C94.9010827,1300.32207 104.659083,1265.53807 126.270083,1240.75607 L126.320083,1240.83107 C158.407083,1192.69907 160.765083,1175.55007 137.321083,1121.74707 C95.4230827,1120.14307 52.2660827,1119.66407 11.3570827,1109.86007 L12.8870827,1100.70107 C11.3730827,1100.29807 3.63808267,1098.26507 1.97708267,1097.83507 C2.19908267,1099.54007 3.35208267,1107.31607 3.32408267,1108.87307 C1.41308267,1110.96707 -3.20591733,1112.91207 -4.06491733,1108.79107 C-29.7999173,998.611067 -52.8319173,890.615067 -77.8579173,780.599067 C-104.049917,669.561067 -156.723917,491.964067 -27.7879173,430.769067 L-30.4499173,419.392067 C-37.5699173,419.394067 -40.4309173,411.622067 -43.6949173,400.643067 C-58.2429173,361.363067 -29.9549173,322.850067 -3.50191733,298.555067 C32.6560827,262.296067 66.0130827,222.040067 98.2820827,183.124067 C190.330083,71.0280666 315.575083,-78.5579334 475.672083,-53.1449334 L475.133083,-46.5419334 C500.177083,-43.3879334 526.326083,-36.7549334 551.684083,-41.3749334 C638.261083,-56.3979334 732.451083,-22.4119334 785.699083,47.3690666 L787.655083,34.3630666 C787.839083,33.1360666 788.277083,32.0010666 790.216083,32.0010666 C792.753083,31.9110666 794.094083,33.9900666 795.032083,35.9080666 C886.936083,72.2960666 925.006083,190.737067 954.375083,271.919067 C958.124083,285.641067 957.067083,289.701067 956.740083,290.508067 L951.407083,293.691067 C1006.79508,367.506067 1037.23208,456.291067 1063.34308,540.475067 C1071.97308,562.917067 1072.87308,578.468067 1058.46008,592.041067 C1153.49608,649.247067 1228.07008,738.400067 1185.90608,840.039067 C1130.87708,938.938067 985.163083,1001.68807 875.716083,1058.49307 C832.254083,1082.08107 769.040083,1094.64107 729.047083,1133.27007 C726.375083,1137.22407 722.541083,1141.07907 720.218083,1140.76207 C701.656083,1143.51307 674.030083,1027.37107 678.229083,1018.07007 C658.635083,1025.08907 636.838083,1024.71607 616.344083,1028.37807 C618.180083,1032.41907 624.193083,1037.89107 619.694083,1042.38807 C619.999083,1056.02807 617.905083,1070.77307 614.908083,1084.67607 C639.503083,1080.72707 638.945083,1093.65307 615.282083,1086.81207 C614.639083,1092.83607 612.998083,1108.19407 612.370083,1114.01607 C619.433083,1110.90607 633.491083,1108.72207 638.414083,1113.58707 C636.403083,1120.07107 618.983083,1113.96507 612.273083,1115.88707 C608.348083,1145.04607 607.068083,1173.71307 604.314083,1202.79107 C625.254083,1222.77307 657.962083,1227.49507 676.649083,1249.10707 C692.482083,1265.55607 690.199083,1293.16107 671.624083,1306.39307 C683.001083,1319.75907 673.896083,1341.94607 657.284083,1345.57307 C634.653083,1350.86507 610.997083,1343.54707 588.683083,1337.39907 C551.591083,1325.16207 512.744083,1306.08707 469.932083,1279.08607 C452.995083,1268.51807 440.380083,1251.91307 434.386083,1232.31607 C390.951083,1098.21307 379.344083,1007.09007 399.846083,961.353067 C411.545771,952.499066 424.587409,957.963568 435.389537,953.128119 C440.538054,950.823444 445.177827,947.724624 448.921083,936.733067 C392.570083,931.190067 310.424083,941.490067 265.253083,914.441067 L266.842083,911.054067 C262.671083,908.387067 253.506083,897.229067 250.019083,893.642067 C256.304083,969.375067 261.356083,1047.06807 263.856083,1122.53507 C272.142083,1136.49607 279.178083,1150.94607 286.902083,1167.06807 C292.274083,1172.35307 301.673083,1181.41207 296.158083,1187.40607 C296.157083,1187.40607 342.538083,1296.20207 356.712083,1351.19707 C370.207083,1351.76807 375.678083,1374.66707 375.164083,1389.87707 C373.112083,1417.55707 337.651083,1420.49407 306.564083,1423.20607 C285.293083,1425.44307 263.422083,1426.6008 241.876083,1426.6008 C202.947083,1426.63007 105.611083,1423.94607 96.4020827,1389.37607 Z" id="âœ‹-Skin" fill="#FFDBB4"></path>
                    <path d="M159.16289,1166.0402 C185.16389,1145.5522 248.67589,1137.6302 275.59289,1153.9112 C276.84289,1158.1912 280.14689,1160.8252 283.48189,1161.1102 C286.78089,1164.7152 288.08789,1170.1642 292.49289,1172.6302 C309.18089,1227.8642 350.691,1307.191 362,1364 C360.008822,1364.64498 370.103233,1368.8865 373,1379 C375.612857,1388.12228 371.095619,1403.19924 369,1404 C322.026504,1421.94907 222.801986,1427.03015 169,1419 C102,1409 91.9745993,1369.97847 92,1370 C88.5931732,1353.26363 87.9487257,1355.03986 100,1326 C105.029932,1313.87941 98.4550432,1295.79547 114,1264 C120.163322,1251.39362 133.555323,1227.37986 154.176004,1191.95873 C157.631236,1183.73067 160.74689,1175.19042 159.16289,1166.0402 Z M542.99189,932.0902 L542.032535,933.719881 C539.191326,938.602037 526.015327,974.285986 531,1004 C535.433495,1030.4284 556.805354,1040.24628 573.22189,1044.0602 C592.52289,1048.2162 595.188,1039.163 613,1031 C612.964843,1031.84251 627.562102,1033.42458 625,1044 C621.025516,1060.40523 614.468781,1106.50122 609,1136 C604.002595,1162.95616 599.616214,1173.1671 605,1193 C610.020324,1211.49397 666.0175,1236.57625 678,1248 C698.225854,1267.28272 668.42289,1328.9802 665.34289,1333.5302 C650.727798,1348.9428 607.855475,1336.50244 588.375923,1330.85645 L587.792231,1330.68809 L586.64289,1330.3622 C548.74089,1317.1882 504.91889,1296.1142 470.74189,1275.2412 C454.71989,1266.0072 443.70889,1242.5382 438.49289,1224.9502 C415.00089,1141.2432 384.51989,1052.4192 398.33889,964.8602 C400.4039,961.919303 425.457318,950.642171 448.746098,944.259106 C453.652908,942.914231 458.481381,933.786614 463,933 C492.936976,927.788483 532.588297,932.053844 542.99189,932.0902 Z" id="ðŸ‘Ÿ-Shoes" fill="#FFFFFF"></path>
                    <path d="M-63.9009358,455.06127 C-19.1532458,426.18082 30.4091167,426.607575 83.6169917,450.783457 C123.217158,468.776451 161.33322,497.548358 205.539513,538.888832 L206.880969,540.145423 L208.443858,541.638131 C233.720366,565.848041 255.514012,589.823161 274.092996,614.375958 L275.327282,616.010431 C276.135546,617.033866 276.70291,617.174892 277.372698,616.864173 L277.479355,616.81142 L283.556865,613.627148 L287.268182,619.397922 C290.326651,624.153574 291.795994,629.301967 292.062124,635.081007 L292.090646,635.797743 C292.184719,638.627851 292.036484,641.068844 291.569227,645.02593 L291.378901,646.584625 L290.919807,650.125932 C290.076469,656.6842 289.889671,660.091408 290.390222,663.488643 L290.477422,664.039955 L290.571577,664.566929 L290.924878,666.443189 L288.690215,673.36819 C282.712421,691.922568 276.890904,710.250306 271.21891,728.379495 L269.521791,733.812324 L266.386606,743.88461 L265.093811,747.820847 L264.423254,749.888223 L264.1093,750.897729 C263.663228,752.359015 263.325679,753.595372 263.051464,754.7884 L262.899625,755.470458 C261.634252,761.357192 262.386684,763.617309 265.737791,764.903293 C267.939917,765.748943 270.404196,765.348733 273.430144,763.553029 L273.756516,763.355285 L291.379856,752.461143 L284.813473,772.111768 C283.80122,775.141048 282.624906,778.061078 280.923573,781.885093 L280.635095,782.530973 L280.112827,783.689064 L277.86062,788.631913 L277.370843,789.724413 C273.789299,797.757771 272.256544,802.23998 271.669844,807.072032 L271.609877,807.599271 L271.675612,808.089522 C271.892021,809.589786 272.201656,810.76555 272.567242,811.625238 L272.659783,811.83358 L272.754525,812.028782 L272.890499,812.283554 C273.057304,812.578736 273.167423,812.70368 273.236242,812.75218 L273.273271,812.7724 L273.297094,812.779521 L273.386758,812.79802 C273.561949,812.827922 273.807821,812.836479 274.12743,812.810432 C275.022353,812.7375 276.211571,812.416045 277.625636,811.825978 C283.197434,809.500957 290.561975,803.766292 297.016167,797.327963 L297.464949,796.87767 L298.039436,796.293234 L323.203289,770.210061 L311.075974,803.455956 C307.125734,814.285169 305.542914,822.30174 306.00949,827.108437 C306.092434,827.962928 306.236331,828.638486 306.416091,829.136946 C306.478421,829.30978 306.535917,829.439196 306.58528,829.532274 L306.625877,829.604271 L306.789368,829.629141 C311.549237,830.187637 322.648269,823.323204 333.827207,811.606926 L334.607183,810.781671 L335.386947,809.940866 L352.951849,790.820802 L348.288118,816.361989 C347.06585,823.055814 348.381418,827.389307 352.224807,829.607496 L352.577728,829.802575 L352.860361,829.965675 C356.68124,832.064625 361.311899,829.45278 368.319203,821.187462 L368.953117,820.432146 L369.581587,819.669004 L370.592666,818.418584 L372.944877,815.465271 L373.499864,814.7447 C392.331229,790.085688 404.140603,758.240248 408.781941,722.752488 L408.926127,721.630615 L409.064133,720.517948 L410.565731,708.190165 L415.656877,711.713271 L414.766836,705.70025 L431.003502,722.503142 C468.939028,761.761601 510.082409,771.849937 550.577976,756.111436 C587.066881,741.930113 621.274192,706.994662 644.801775,661.245481 L645.511454,659.855842 L646.330247,658.195395 C653.080846,644.435862 659.421935,629.958878 664.075052,616.631499 L664.494482,615.418934 C670.13919,598.944566 672.192413,586.487081 670.182518,581.155592 L670.107171,580.963722 L666.880432,573.073494 L675.11734,570.877841 L753.739507,549.863569 C782.118346,542.315254 803.541726,536.712014 824.889491,531.279237 L827.384747,530.644909 L849.484601,525.063086 L843.825771,538.827578 C833.037307,565.069347 821.818939,586.388897 798.521069,626.587605 L795.545078,631.712494 L785.513547,648.933964 L782.392997,654.327221 C758.162613,696.343663 745.079318,722.462321 735.328071,750.942508 L735.021236,751.842688 L734.395344,753.704233 C721.384246,792.761567 718.094314,829.824386 725.763881,868.441063 L725.917,869.206 L726.645345,871.438019 C734.458363,895.268609 743.037189,917.976842 751.181837,934.114395 L751.588702,934.915771 L752.374418,936.435942 L752.766136,937.180071 C755.302908,941.969007 757.684939,945.843495 759.841843,948.674697 L760.373811,949.357422 C761.289032,950.504446 762.109299,951.387749 762.77606,952.008074 L763.034877,952.242271 L763.065956,952.187979 C764.002668,950.459079 764.986908,947.545528 765.864406,943.477164 L765.969183,942.983419 L766.069056,942.497494 L770.099927,922.574682 L780.133223,940.626087 L780.496535,941.293218 C781.568939,943.285721 782.500901,945.232879 783.760744,948.07062 L784.193478,949.050803 L786.164596,953.581312 L787.119419,955.735974 C788.434604,958.661581 789.40614,960.614793 790.447555,962.383506 L790.590038,962.623624 L790.995583,963.287568 L791.198877,963.611271 L791.30713,963.734791 C793.468931,966.094998 797.282182,965.393719 799.448284,961.62974 L799.584277,961.385327 L799.712973,961.137836 C801.658543,957.364311 802.429782,952.609668 802.387424,945.75546 L802.378337,944.90973 C802.36525,944.020987 802.343215,943.172428 802.306056,942.152075 L802.289186,941.703645 L801.958543,934.156269 L801.918775,932.969347 L801.90863,932.599531 L801.879837,931.129448 L801.840757,929.766041 C801.789771,927.681512 801.768702,925.521707 801.768577,922.921247 L801.770219,921.582604 L801.80619,913.040599 C801.810903,909.410322 801.782217,906.974617 801.697995,904.502359 L801.672401,903.793942 L799.827347,860.691413 L816.777401,901.428387 C819.103433,906.98722 821.407023,912.333685 824.656618,919.734561 L825.342764,921.295834 L834.239182,941.450804 L836.748005,947.18198 L838.389877,950.970271 L838.476877,950.930271 L839.419188,949.815573 C841.515887,947.332958 842.823676,942.797433 843.326772,936.759326 L843.369074,936.222667 L843.406194,935.693517 L843.431202,935.300584 L843.476877,934.448271 L843.932995,922.802606 L844.368905,911.27472 L846.955776,840.055348 L849.795077,767.665268 L862.443234,820.395419 C865.756358,834.207833 871.485999,847.698984 880.898745,865.212038 L881.921404,867.104025 L882.954541,868.995096 L883.456877,869.906271 L883.541794,869.738312 C883.918538,868.969914 884.273805,868.122654 884.569684,867.269172 L884.739781,866.756917 L884.834241,866.450298 L884.915877,866.169271 L885.507898,864.009144 L886.823976,862.635729 C888.020002,861.387597 888.951684,859.155036 889.477981,856.228285 L889.547223,855.824907 L889.618877,855.352271 L889.62912,855.087369 C890.28133,834.626342 882.365968,746.920083 877.921953,716.638363 L877.65431,714.857191 L877.550904,714.124015 L877.432291,713.350523 L877.282941,712.432531 C877.233274,712.136331 877.1819,711.83988 877.123348,711.513036 L876.995054,710.809892 L875.824161,704.681224 C875.615818,703.570317 875.449789,702.644748 875.297632,701.737994 L875.241168,701.398518 L875.033578,700.093188 C874.035678,693.555718 873.914852,688.343513 875.017245,683.365058 C876.494208,676.69503 880.16264,671.220051 886.194235,667.300624 L886.61888,667.029704 L887.33646,666.580237 L890.698547,665.41679 L893.24036,664.550597 C898.990977,662.604415 905.02427,660.653492 912.75356,658.225842 L915.394744,657.398322 L940.013215,649.747545 L945.570507,647.991605 L949.059277,646.874633 C971.996348,639.48887 988.595487,633.277936 1004.25801,625.868628 C1024.66775,616.2136 1041.56387,605.189781 1055.65305,591.811374 L1056.4329,591.0657 L1060.62416,587.030132 L1065.57491,590.086676 C1070.65858,593.22528 1075.65966,596.444821 1080.56611,599.738612 L1082.66304,601.154763 L1083.28903,601.580059 L1084.78809,603.117118 L1104.7869,623.478665 L1108.12922,626.922625 C1134.16689,653.849018 1150.27488,672.881666 1163.6301,694.041711 L1164.05094,694.710642 L1164.93116,696.123854 C1183.70044,726.463865 1193.07356,756.933592 1191.96975,789.72079 L1191.93309,790.715053 L1191.91831,791.390148 C1191.23392,816.518757 1181.74192,839.429162 1164.64859,860.86328 C1151.09157,877.863057 1133.5854,893.176768 1110.27183,909.763418 L1107.97925,911.385479 L1105.66748,913.00311 C1037.06711,962.328541 961.815074,1005.98889 880.495945,1044.22935 C855.207246,1056.14521 828.702031,1067.82803 800.108002,1079.7349 L797.421166,1080.85184 L792.170005,1083.02407 L789.241692,1084.2127 L786.258971,1085.4359 L784.374812,1086.21725 C757.284721,1097.50946 740.156527,1107.2146 726.178519,1120.74507 L725.697757,1121.21316 L718.990854,1127.78148 L714.065379,1119.78992 C693.991107,1087.21953 682.41335,1049.76544 673.551766,997.89335 L673.068619,995.035289 L672.591954,992.162262 L671.471001,979.25438 C670.805732,971.708756 670.278241,966.010456 669.742989,960.669447 L669.36198,956.939255 L668.819877,951.860271 L668.372822,949.302629 L667.185948,942.408096 L666.38747,937.852474 L665.953514,935.421098 L665.481252,932.815246 C664.932914,929.815217 664.392925,926.952304 663.852123,924.191339 L663.620274,923.014208 C662.885683,919.305351 662.169041,915.88856 661.473013,912.795348 L661.015877,910.799271 L660.465721,910.992284 C622.530301,924.174726 582.187006,930.416836 542.378139,929.229288 L540.939502,929.183129 L539.734877,929.138271 L535.622129,929.197713 C519.832428,929.400892 504.045033,929.342083 483.906318,929.042545 L474.99634,928.899495 L461.478164,928.650332 L427.682554,927.978992 C402.735398,927.513671 387.245411,927.351754 371.05862,927.441014 L369.234131,927.452113 L362.998488,927.504918 L353.814436,927.619562 L350.219558,927.678186 L335.546261,927.988622 L330.394748,928.081924 C314.483649,928.339109 304.97513,928.166387 294.61308,927.278634 L292.454648,927.084665 L290.603126,926.904957 L289.753899,926.717409 L288.927775,926.526306 C281.966585,924.872666 276.477697,922.444517 266.358024,917.076707 L261.762467,914.625891 C258.418492,912.853024 256.301008,911.784148 254.063785,910.758928 L253.47656,910.492035 L249.453168,908.678103 L249.013324,903.435809 C248.238824,894.498804 247.175062,887.206142 245.914367,881.681762 L245.667927,880.63464 L245.613877,880.416271 L245.567728,880.705899 C244.903567,884.971841 244.602029,890.079915 244.741108,895.631717 L244.765284,896.467766 L244.793179,897.236674 L245.056616,908.224252 C245.412157,921.96592 245.870363,935.468441 246.590861,953.665215 L247.027775,964.499757 L249.448881,1022.17142 L249.902336,1033.58422 C250.904875,1059.43013 251.523027,1080.01259 251.846223,1100.04257 L251.910998,1104.32797 L252.035398,1113.94969 L245.33128,1114.74285 C174.433609,1123.13069 100.201975,1120.45658 9.68567693,1108.65085 L6.93776085,1108.29031 L1.73170383,1107.60321 L-2.93675127,1086.57335 C-8.15056776,1063.19032 -13.2808785,1040.56985 -20.0069112,1011.3013 L-25.8059748,986.128533 L-51.3872097,875.602071 C-54.0856474,863.910734 -56.4433327,853.663037 -58.6474588,844.041371 L-62.5341962,827.025513 L-67.4763545,805.241159 L-67.7546213,803.764675 C-69.3210558,795.535353 -71.3209586,786.383929 -73.9746942,775.164443 L-74.9388144,771.116887 L-76.703853,763.842508 L-84.6051989,731.927679 L-87.3401715,720.837146 L-88.9972345,713.996681 C-95.0246009,688.937782 -99.2972629,669.094816 -102.69273,649.528392 L-103.115572,647.065815 C-110.069129,606.114466 -111.975709,571.457872 -107.82255,541.338817 C-102.862663,505.369298 -89.2209301,476.754452 -65.4042515,456.256858 L-64.6794179,455.638204 L-64.3088501,455.32454 L-63.9009358,455.06127 Z" id="ðŸ‘–-Pants" fill="#8FA7DF"></path>
                    <path d="M285.8931,-12.9555 C351.9691,-56.9135 437.7541,-80.0595 514.3841,-51.2765 C515.2941,-50.9565 514.9331,-49.6265 513.9831,-49.8365 C501.8741,-52.4965 489.5731,-53.9865 477.2041,-54.4965 C502.2751,-51.4305 526.6041,-44.8445 551.9931,-49.2835 C636.7951,-63.3065 726.7211,-34.5015 783.0631,31.4735 C784.5201,21.7795 796.5511,22.1395 800.4731,28.9935 C875.4031,55.4185 917.8421,154.6915 946.1451,223.5835 C949.4701,235.8635 972.5631,286.8555 961.4731,293.4735 C1014.2581,365.8705 1043.9581,451.5965 1070.3121,536.3935 L1071.06613,538.456221 C1077.04842,555.052652 1081.61318,573.83486 1068.9431,588.6035 C1121.5031,620.7755 1170.1001,663.9885 1193.0731,722.5435 C1229.6621,808.9185 1183.0381,882.0975 1110.3441,928.8945 C1038.3011,981.1165 960.2521,1024.5965 879.5731,1061.9335 C852.4431,1074.4735 824.9731,1086.2435 797.3441,1097.6445 L794.594364,1098.76898 C772.890189,1107.70303 750.989114,1118.20482 734.7541,1135.3945 C703.1851,1181.5175 674.0251,1043.3575 673.7041,1024.1035 C658.8991,1028.5585 642.5951,1028.6585 627.3131,1030.9845 C629.2541,1034.3145 629.4031,1038.6445 627.0421,1042.1945 C627.0781,1053.4665 625.8851,1064.8275 623.6831,1075.9935 C647.1381,1073.9115 646.3261,1097.5945 621.8741,1092.1335 L620.6531,1103.5835 L620.6531,1103.5835 C631.8171,1100.1215 655.3961,1105.6525 641.5841,1118.9745 C634.3511,1122.5515 626.6451,1119.2535 618.9331,1119.6335 C615.6101,1145.8055 614.3451,1171.9955 611.9141,1198.2835 C632.8641,1216.5135 663.9641,1221.3435 682.5621,1243.2235 C698.8151,1261.0115 699.2191,1288.8405 680.6141,1305.5835 C690.6091,1322.6655 678.5261,1344.9165 660.0441,1349.4045 C636.2211,1355.0705 611.2721,1347.5205 588.2831,1341.1445 C546.476,1327.36914 506.913371,1306.5407 469.69099,1283.17977 L468.0741,1282.1625 C449.6561,1270.6695 436.3261,1252.7835 429.9911,1232.0725 L428.636385,1227.87569 C406.139747,1157.93605 366.12668,1020.75308 396.1431,955.9545 C410.2861,940.2685 433.0821,958.5345 441.3231,940.0535 C388.1521,935.8885 302.4771,945.1555 259.1531,914.7435 C263.4071,975.9195 269.7171,1037.0575 269.4651,1098.4135 C268.3851,1106.4825 273.8321,1111.5305 271.6431,1119.6735 C279.5521,1133.2055 286.3801,1147.3125 293.1541,1161.4345 L293.582054,1161.83406 C300.61576,1168.50205 309.65724,1182.03138 300.4031,1189.9635 C331.8971,1236.1175 348.9821,1290.5905 362.9431,1344.1635 C377.7931,1347.5695 383.4031,1375.2175 382.4831,1388.4335 C378.3151,1423.9465 336.2161,1424.1755 308.5531,1427.1735 C292.3931,1428.8735 276.1831,1429.9335 259.9431,1430.3735 C227.0841,1431.2635 194.1831,1429.5235 161.5941,1425.2415 C135.0451,1422.9155 105.6951,1415.9725 92.4721,1390.2535 C81.8111,1371.7925 80.1471,1344.0895 94.8931,1327.5235 C90.58264,1295.79598 100.687491,1262.72474 120.432811,1237.70908 L121.0341,1236.9535 L120.983767,1236.93431 C120.531035,1236.7352 120.571264,1235.98633 122.419137,1235.61212 L122.6241,1235.5735 L123.511045,1234.20061 C152.523695,1189.22736 156.13867,1176.89639 134.6131,1125.6035 L115.052703,1124.90371 C78.8061878,1123.57605 42.1797944,1121.6671 7.1031,1112.6535 C2.1341,1116.7935 -6.6069,1116.3145 -8.5569,1108.1945 C-34.0739,998.9955 -57.4869,889.2885 -82.3659,779.9315 C-108.2239,664.8425 -163.9429,490.1285 -29.1069,423.3935 C-42.8789,423.3965 -45.9479,406.8715 -49.2949,396.4435 C-61.5659,355.9185 -34.5269,318.4745 -6.2459,292.1635 C93.0331,192.4985 167.7271,66.9355 285.8931,-12.9555 Z M96.5631,1339.7235 C94.6971,1393.3775 135.3021,1406.2435 181.0041,1407.6135 C209.4831,1410.3235 238.1741,1411.1535 266.7631,1410.0345 L280.230063,1409.25466 C302.721544,1407.93072 325.382933,1406.276 347.2721,1401.1435 C361.6871,1398.1805 365.3011,1385.2865 360.0941,1372.6835 C357.8441,1373.6835 355.1831,1373.7535 353.1031,1372.2935 C350.7731,1370.6635 349.0841,1368.9335 347.8031,1366.8945 C273.7441,1399.8505 180.5551,1396.2415 108.7831,1358.3235 C99.5861,1357.8725 98.3921,1346.8875 96.5631,1339.7235 Z M276.5941,1169.8945 C249.6771,1153.6135 195.1651,1146.5355 169.1641,1167.0235 C170.9461,1177.3175 166.7801,1186.8395 162.8741,1196.0135 C174.7371,1193.1815 277.9281,1179.2775 263.3531,1204.6445 C255.1931,1211.2235 244.0841,1206.6945 234.6531,1205.8035 C209.3601,1203.7005 183.8921,1204.3695 158.6741,1207.2345 C156.4761,1213.3975 155.6271,1220.3095 152.8931,1226.1235 C178.434118,1217.69557 205.155032,1213.66333 231.954185,1212.22192 L233.4431,1212.1445 C245.1431,1211.5235 258.8341,1208.9335 267.5441,1218.4925 C274.9671,1228.6435 258.4921,1235.6285 250.0041,1234.6335 C213.8541,1233.5495 177.6301,1234.8885 141.5131,1236.4445 L139.925455,1239.06396 C114.403205,1281.31752 108.90762,1297.9577 119.2231,1348.6335 C119.1641,1348.5835 119.1031,1348.5435 119.0531,1348.4935 C119.0131,1351.2345 118.1341,1353.7035 116.2631,1355.5435 C194.0961,1380.8025 266.5901,1379.3675 343.9331,1354.3145 C332.6241,1297.5055 310.1821,1243.8475 293.4941,1188.6135 C289.0891,1186.1475 287.7821,1180.6985 284.4831,1177.0935 C281.1481,1176.8085 277.8441,1174.1745 276.5941,1169.8945 Z M463.1151,940.6845 C429.2031,964.6645 444.5181,993.0025 453.8941,1025.5635 C467.5991,1073.4285 478.1281,1122.1915 489.8551,1170.5625 C496.7631,1213.5255 523.9291,1250.7895 563.0131,1270.1135 C580.5941,1279.3775 599.8831,1285.3695 619.5941,1287.8335 C627.2041,1288.6065 635.6361,1287.7905 640.7331,1294.6135 C643.6241,1297.7435 643.9431,1302.8835 640.7331,1305.9545 C630.6541,1317.3825 601.3571,1307.0725 587.7661,1304.2225 C487.0531,1273.6935 471.7461,1200.7175 452.3201,1109.2235 C442.9071,1058.4085 419.7781,1004.8895 433.7331,953.3535 C425.2931,957.8665 412.3261,956.3185 406.3401,964.8435 C392.5211,1052.4025 423.0021,1141.2265 446.4941,1224.9335 C451.7101,1242.5215 462.7211,1257.9905 478.7431,1267.2245 C512.9201,1288.0975 548.7421,1307.1715 586.6441,1320.3455 L587.793441,1320.67139 C607.028302,1326.19097 648.58138,1341.08178 663.3441,1325.5135 C666.4241,1320.9635 666.2841,1316.0935 662.4041,1313.0725 L660.523599,1312.35747 C656.912827,1310.96157 652.661178,1308.99602 652.003334,1304.77576 L651.9641,1304.4845 L652.1031,1304.4335 C648.9641,1298.6745 655.0561,1292.2235 660.5131,1290.8135 C668.2041,1290.5355 671.7811,1285.4135 674.5151,1277.8935 C679.4191,1241.0845 627.7361,1231.2485 610.6031,1206.0645 C608.7871,1215.2575 594.6381,1213.5055 594.7121,1204.2335 C594.1531,1176.0695 600.2741,1147.6475 604.4641,1119.8635 C598.0151,1119.5875 591.1621,1122.1945 584.8831,1120.7825 C583.9561,1114.9805 602.0691,1108.9005 607.0541,1106.9845 C608.0841,1102.1835 609.1741,1097.4035 610.3341,1092.6445 C570.0461,1095.0785 588.7601,1082.1585 614.2041,1077.7345 C614.9961,1075.03536 615.690386,1072.26274 616.322852,1069.5212 L616.6341,1068.1535 C618.2431,1061.2835 619.0941,1054.7935 619.3741,1048.0835 C601.5621,1056.2465 581.5241,1061.1995 562.2231,1057.0435 C527.3491,1048.9415 509.2721,1006.6045 523.2721,974.8335 C520.0871,963.5645 526.3401,951.5795 531.9931,942.0735 C509.0341,941.9935 486.0631,941.3635 463.1151,940.6845 Z M122.1641,1236.1235 C121.86335,1236.3035 121.580038,1236.50656 121.305725,1236.7272 L121.0341,1236.9535 L121.102456,1236.97198 C121.432793,1237.04042 121.913833,1236.8535 122.2041,1236.1535 C122.1431,1236.2135 122.1431,1236.1835 122.1641,1236.1235 Z M124.2841,1235.4135 C123.7341,1235.43017 123.267433,1235.47461 122.860952,1235.53526 L122.6241,1235.5735 L122.548648,1235.69172 C122.407324,1235.90572 122.319529,1235.99536 122.2141,1236.1445 C122.7951,1235.6735 123.5831,1235.4545 124.2841,1235.4135 Z M165.9141,1201.8535 C164.0361,1202.1025 162.1611,1202.3275 160.2731,1202.5645 L159.9031,1203.5735 L159.9031,1203.5735 C161.9031,1202.9735 163.9031,1202.4035 165.9141,1201.8535 Z M249.2631,1120.4135 C215.7571,1123.8255 181.9891,1121.7225 148.4731,1125.5335 C155.0451,1134.6115 159.7331,1144.6595 163.6641,1155.2635 C191.1921,1129.2665 235.3531,1137.2185 268.4731,1146.7935 C266.2441,1140.2825 264.1911,1133.7115 262.3531,1127.0835 C257.3971,1127.8825 251.7381,1125.0975 249.2631,1120.4135 Z M1066.4931,591.7835 C1020.6931,638.4585 951.4731,651.2895 892.2341,671.8945 C877.8511,680.9035 884.8811,698.7555 886.7141,712.3135 C890.1441,734.5685 892.8671,756.9305 894.8441,779.3635 C902.1621,770.8995 921.3341,769.7935 932.0631,766.3535 L933.492455,766.030854 C947.805057,762.74607 962.679906,757.819952 977.2841,761.0135 C983.1741,762.2935 983.5731,770.4445 978.8931,773.3435 C967.03849,780.706551 952.535007,780.918323 938.946139,782.528903 L935.470736,782.94518 C923.445319,784.376189 911.325671,785.682357 899.2431,785.1735 C897.7231,785.4135 896.1931,784.8335 895.2331,783.8035 C896.7381,807.2555 899.7561,831.0425 898.7331,854.5335 C898.1741,858.7035 896.8341,863.2435 893.8731,866.3335 L893.775273,866.690713 C892.099996,872.623463 886.65002,883.21448 880.3741,875.3735 L879.19521,873.254138 C869.978591,856.620441 861.239508,839.228092 856.7841,820.6535 C855.3011,858.2175 854.1011,895.7625 852.6031,933.3145 L852.554167,934.215854 C852.172073,940.589967 850.926782,948.257136 846.7831,953.1635 C847.1491,956.0785 844.5371,957.7765 842.2041,956.7345 L841.894323,956.877661 C839.658255,957.878849 836.059055,958.8035 834.6931,956.0735 C826.8231,937.6635 818.4431,919.5435 810.7631,901.0835 C811.1691,910.5575 810.7111,920.0515 811.0131,929.5335 C811.1641,940.3535 813.1741,953.0735 808.0131,963.0835 C803.6071,971.8515 792.6311,974.1455 786.7421,966.5145 C782.0231,959.2265 779.3481,950.2185 775.0541,942.4935 C762.9551,1002.2935 732.3181,914.3905 726.6931,896.2735 C709.4031,906.3835 691.1741,914.9235 672.3231,921.7535 C677.5081,929.6085 676.2541,940.2865 677.8841,949.3145 C679.3531,962.7735 680.5131,976.2435 681.6731,989.7345 L682.101472,992.316452 C689.162725,1034.50844 699.44708,1077.63506 722.0841,1114.3635 C741.2481,1095.5955 766.3921,1084.5245 790.9831,1074.5835 C820.5941,1062.3735 849.9641,1049.6035 878.9331,1035.9535 C957.2401,999.1295 1032.6391,955.9585 1102.9231,905.4225 L1105.31206,903.750103 C1144.37096,876.26059 1185.0735,840.21474 1186.0731,788.9235 C1189.4421,704.8395 1119.1401,647.4795 1066.4931,591.7835 Z M203.3831,544.1235 C136.5201,481.3865 34.1481,400.2695 -58.1999,459.8715 C-144.4599,532.8855 -76.1159,707.9535 -58.4959,802.2335 C-36.0909,901.3365 -12.4109,1000.1685 9.5531,1099.3635 C87.8751,1109.7005 167.3751,1115.1155 246.0841,1105.8035 C245.1941,1035.8625 240.4751,966.0105 238.9331,896.0435 C237.4991,859.9955 237.9971,823.8065 232.5951,788.1035 C228.0111,759.0725 233.8981,724.0035 217.7331,698.6445 C211.7501,689.4105 202.0191,681.3265 199.8441,670.1945 C199.7941,669.6735 200.4731,669.5035 200.8031,669.7935 C205.5341,673.9535 209.3341,678.9135 214.3531,682.9035 L218.044208,685.762288 C224.047082,690.436681 230.02649,695.426085 233.7441,702.0735 C234.1261,699.2405 226.9611,673.9915 231.2521,677.0035 L232.060645,679.217352 C237.831051,695.091366 243.032989,711.150411 244.5141,728.1335 C250.1781,786.0205 253.3431,844.1925 258.1931,902.1635 C269.8911,907.4375 280.6391,915.1905 293.4141,917.9935 C314.337252,920.063803 335.289553,918.89285 356.24912,918.616647 L358.2141,918.5935 C419.3691,917.6805 480.3331,921.1145 541.4431,920.1455 C603.9071,922.5695 667.7601,906.2025 721.0731,873.3235 C691.8641,741.3795 792.1531,647.2745 838.5231,534.4845 C785.1081,547.9605 731.9501,562.4345 678.6831,576.6335 C685.8721,594.2125 662.6221,644.0275 653.8721,661.6815 C607.0571,753.9975 512.3811,814.3295 427.2441,726.2235 C427.2841,726.4935 427.3131,726.7635 427.3441,727.0435 C424.4851,724.4335 421.3261,722.1365 418.1431,719.9335 C413.8671,755.0385 402.3011,790.4235 380.4731,818.6135 L378.092035,821.60141 C371.283332,830.093472 361.42571,841.2604 350.5241,834.8435 C342.4971,830.5015 340.9871,822.0505 342.5441,813.5235 C316.3181,842.0715 287.7441,848.5205 305.6641,799.3945 L305.070998,800.009271 C295.03938,810.313526 268.41378,833.08214 265.7031,806.1635 C266.8851,792.7615 275.1391,780.7975 279.3341,768.2435 C274.8531,771.0135 269.8131,772.3835 264.6831,770.4135 C250.9241,765.1335 258.0041,749.3945 261.0731,739.4845 C268.8441,714.4335 276.7731,689.4235 284.8351,664.4635 C282.0411,649.6255 290.8891,634.8615 282.5941,621.9635 C279.0441,623.8235 274.2631,623.4335 270.8341,618.8535 C250.7141,592.0535 227.6241,567.2235 203.3831,544.1235 Z M10.4831,1103.9135 C10.5041,1104.0645 10.5041,1104.1945 10.5131,1104.3435 C11.2841,1104.3945 12.0441,1104.4635 12.8131,1104.5335 C12.0291,1104.3435 11.2551,1104.1155 10.4831,1103.9135 Z M670.9931,1007.5645 C658.6521,880.4625 690.6751,940.3195 560.6141,941.7635 C561.1981,944.9465 557.0151,944.5805 558.4931,943.6945 C556.6101,936.6705 545.9311,957.2535 544.4431,959.9235 C541.6341,965.8835 540.3531,973.3035 539.3641,979.8225 C532.3941,1016.3375 558.3681,1048.3275 596.2431,1032.8035 C591.3681,1032.3965 585.8901,1034.1595 581.8441,1031.0435 C581.8641,1031.0335 581.8741,1031.0135 581.8931,1030.9935 C578.2701,1024.5015 598.1421,1024.2195 602.0941,1022.4845 C617.4941,1019.2655 632.9331,1016.2745 648.2431,1012.6635 C655.7041,1010.9035 663.3441,1008.1445 670.9931,1007.5645 Z M796.0341,958.4535 C794.9241,957.8035 795.4931,959.9335 795.8641,958.8535 C795.9141,958.7135 795.9831,958.5835 796.0341,958.4535 Z M936.0841,279.7935 C880.4181,283.7685 844.3791,311.2685 804.8741,346.5335 C801.9241,349.0835 798.9331,351.5835 795.8741,354.0035 C813.1351,384.2765 831.7451,413.7485 849.7331,443.6035 L853.104209,449.218853 C858.350439,457.97722 863.473276,466.893088 866.5961,476.6445 C877.2351,510.3165 840.0791,569.5845 826.5771,602.6455 C761.9671,716.6945 701.2771,795.8735 760.0631,930.9535 C763.2191,922.4295 756.2481,892.6715 766.6741,891.5135 L766.463969,889.398656 C763.131434,855.061403 762.981544,813.705328 773.3821,783.3845 C767.6261,842.0545 773.8651,903.5425 796.0941,958.3145 C801.9101,906.3885 794.2041,848.3825 795.9931,795.0435 C795.9241,786.8435 808.3231,786.9335 808.6741,795.0435 L809.096925,808.815458 C810.549714,855.487514 813.05963,904.36042 840.1931,943.8435 C842.8061,883.7395 831.8461,820.4285 852.9031,762.8035 C854.6241,758.6535 860.8231,758.9735 861.0031,763.9045 C861.3901,783.5195 869.6841,849.9175 883.9931,861.4335 C887.9241,849.4235 887.5231,836.2835 886.8921,823.7035 C884.9441,778.1165 878.3721,733.6335 870.3051,688.6845 C868.8461,679.8025 871.4591,668.8705 880.6531,665.4445 C887.4831,658.9445 896.9141,654.3335 904.7141,650.6345 C954.2831,626.1375 1022.4751,630.8565 1056.0041,580.4035 L1057.63105,577.947783 C1061.54027,572.031761 1065.20449,566.189712 1066.8531,559.0935 C1062.3351,542.2115 1055.8391,525.7575 1050.3231,509.1835 C1045.392,494.5405 1040.33049,479.9461 1035.02193,465.43675 L1033.2431,460.6035 C1009.5431,395.8895 979.3701,333.7715 936.0841,279.7935 Z M552.2541,941.9735 C550.98535,942.385625 549.980741,943.656016 548.901291,944.60226 L548.667832,944.79927 L549.327099,944.274201 C550.02672,943.710183 550.657518,943.185365 551.627874,942.44536 L552.2541,941.9735 Z M258.6831,908.6335 L258.9831,912.5535 L258.9831,912.5535 C260.9031,912.9445 262.7841,913.4335 264.6641,913.9135 C262.4831,912.3335 260.4541,910.5835 258.6831,908.6335 Z M542.2836,820.0833 C542.0636,819.3143 543.1636,818.8643 543.5746,819.5413 C559.7526,848.0093 591.6006,859.3423 622.2636,863.8533 C627.4836,865.0743 626.8436,872.2843 622.2636,873.8033 C605.1236,879.4843 585.3336,871.8333 571.3036,861.6443 C556.9236,851.2133 547.1146,837.1233 542.2836,820.0833 Z M850.7141,803.8335 C847.6781,825.7455 847.9541,848.0935 847.6931,870.2135 C848.6931,848.0935 849.5231,825.9535 850.7141,803.8335 Z M404.0634,842.4232 C407.2444,843.5232 410.5344,844.2442 413.7734,844.5232 C410.3344,846.1642 406.4034,845.3432 404.0634,842.4232 Z M154.6131,133.8335 C105.9831,188.9015 63.4101,249.1815 11.1051,300.9345 C-19.5429,328.6345 -48.5389,366.4935 -24.6369,408.1835 C-19.5959,410.1735 -18.7099,417.5995 -23.0569,421.0935 C-22.0189,420.9595 -15.3479,417.7265 -16.8469,420.3735 C-30.2459,426.0935 -42.0269,434.3835 -52.1769,444.4135 C11.0631,397.8885 94.9171,435.1365 150.0731,476.8335 C177.2941,496.7235 202.6031,518.6435 226.3031,542.2345 C234.7841,543.7535 243.5531,548.2835 250.6221,551.8235 C299.3781,575.2465 307.0171,606.8985 302.9941,657.4935 C288.3611,685.3885 281.4391,717.2875 271.2441,747.1945 C260.7581,770.4435 281.3871,754.7745 284.3441,744.6335 C291.52317,735.697267 294.98725,723.822625 299.388098,713.433961 L299.7041,712.6945 C300.9541,709.7235 303.6341,707.5135 307.0841,708.5035 C309.853887,709.297245 312.422516,712.723297 311.347416,715.690659 L309.138468,721.380249 C298.442362,748.873012 287.391288,776.50975 278.8741,804.6835 C307.6541,787.4445 321.9041,754.8155 337.0131,726.0035 C341.1641,718.3435 352.3341,725.0935 348.5941,732.7735 C345.1241,739.8635 341.5841,746.9335 337.8341,753.8835 C328.0331,774.7685 320.9281,796.8045 315.0441,819.0935 C347.3931,799.7985 358.6681,760.4875 367.9731,727.3145 C368.5471,717.8505 382.1921,719.7125 380.7841,729.0035 C377.3231,747.4445 372.0441,765.6135 363.7841,782.5035 L361.6001,795.274241 C360.146544,803.789056 358.706767,812.306833 357.3341,820.8335 C358.1131,820.4535 358.9541,820.4035 359.7631,820.6035 C388.4241,791.7405 399.8961,751.9195 409.9031,713.6445 C405.1451,697.4565 410.9681,680.9025 410.3031,664.2135 C412.8341,642.8465 405.9431,622.9345 396.4001,603.8565 C390.6811,544.8375 333.8411,519.2375 294.2121,484.5465 C245.6751,436.5765 220.1551,363.1285 151.9331,339.3535 C144.8401,339.8045 138.0021,338.2815 131.3631,335.9935 C131.0731,335.9135 131.0231,335.4135 131.3631,335.3635 C138.1161,334.2605 144.8651,332.5365 151.6341,331.3035 C153.4581,325.3535 160.7511,324.6265 166.2351,327.2865 C225.2251,301.4295 274.1191,255.9625 320.9941,212.7035 C275.2241,170.3585 215.9641,144.0705 154.6131,133.8335 Z M426.0541,734.0833 C427.0341,735.1733 427.8931,736.3533 428.5341,737.6443 C428.7091,737.9753 428.6891,738.3693 428.7441,738.7343 C427.9031,737.1543 427.0131,735.5933 426.0541,734.0833 Z M238.9241,555.0935 C255.2201,572.1925 270.8671,590.0115 285.5941,608.6535 C280.3121,581.7485 263.0121,566.1975 238.9241,555.0935 Z M784.3341,350.2435 C748.9511,414.1645 693.5481,470.3145 680.5941,544.4335 C679.5541,550.7735 679.4831,557.1945 679.3531,563.5935 C718.8521,547.4875 760.4351,537.4535 801.1831,525.0925 C816.6281,520.9655 831.6271,514.4705 847.8531,513.6435 C861.2271,490.4545 850.4861,467.7555 838.7131,446.6045 C823.3751,413.0265 799.1131,383.9875 784.3341,350.2435 Z M214.1241,319.1535 C203.8931,324.8955 193.3421,330.1475 182.2141,333.8735 C191.7941,338.7335 200.5531,344.8735 208.6641,351.8635 C212.7391,341.4855 214.2651,330.2445 214.1241,319.1535 Z M474.2541,-49.3265 C468.9421,-2.4985 469.2001,45.8215 481.6351,91.5245 C500.1771,162.7495 568.8321,229.3385 646.5131,215.3735 C724.8911,198.9925 763.4151,117.8145 779.5731,46.4335 C738.2991,-5.9385 673.6861,-38.6995 607.0941,-41.3365 C563.7941,-43.1065 514.8441,-29.1465 474.2541,-49.3265 Z" id="ðŸ–-Ink" fill="#000000"></path>
                </g>
                <g id="Head" transform="translate(345.000000, 180.000000)">
                    <g id="HEAD">
                        <path d="M404.673467,304.0028 C402.52538,285.0878 405.305365,245.551755 405.491639,243.1498 C406.669247,227.96486 399.569334,168.0018 386.147621,173.5268 C363.633056,155.6658 333.64564,151.7218 305.605087,149.8378 C247.360574,145.9238 185.399043,154.9088 140.424048,194.1888 C118.182206,214.5878 96.5287141,244.2568 98.2692467,275.1488 C78.0610911,304.4308 49.5721267,344.5978 74.7506062,378.8308 C83.3092463,389.7678 96.9117539,393.8408 107.663424,402.1238 C129.289338,419.6038 142.857116,444.6898 164.688339,462.0658 C222.52632,514.1488 320.735668,525.0288 377.561402,465.7888 C421.503722,422.8848 414.398479,358.6988 406.669247,304.0028 C401.472829,267.230281 408.864162,340.904005 404.673467,304.0028 Z" id="âœ‹-Skin" fill="#FFDBB4"></path>
                        <path d="M227.798397,69.6251 C243.375464,66.4751 259.370648,64.5151 275.278017,65.1051 L276.504472,65.1528353 C288.4733,65.6321989 303.630874,66.6926 314.072,73.6671 C314.67273,73.0631 315.638688,72.7531 316.514835,73.1721 C328.922603,79.1071 342.569751,83.3981 355.634131,87.6621 C368.638637,91.9051 382.130114,94.7061 395.760297,95.8351 C400.888456,96.2601 405.277177,101.8091 402.030042,106.7861 C401.257675,107.9721 400.505266,109.1701 399.75585,110.3711 C401.0092,110.2401 402.262551,110.1051 403.515901,109.9781 C407.640181,109.5621 411.76047,113.9731 411.515987,117.9971 C411.36331,120.5281 411.090886,123.0291 410.687738,125.5001 C412.258418,125.4671 413.820116,125.7031 415.328926,126.3421 C422.968774,129.5751 422.436899,138.6941 421.865108,145.6321 C421.072783,155.2601 417.47938,165.4581 410.807485,172.6641 C415.788954,177.8491 419.315498,184.0411 421.419051,191.3951 C422.944825,196.7651 423.79403,202.4851 423.374916,208.0751 L423.241304,209.748718 C422.722998,215.81496 421.692515,222.531057 417.337679,226.8951 C415.102405,229.1451 412.348228,229.9651 409.722778,229.7051 C411.310422,243.6851 412.32827,257.7451 413.286245,271.7551 L413.735459,278.451254 C415.872411,310.831125 417.47835,343.421874 417.05827,375.8551 C416.668095,406.1651 410.69173,435.5851 392.140949,460.1951 C375.245669,482.6051 350.987954,499.1251 323.54597,505.4051 C308.757236,508.7951 293.659156,509.0351 278.690802,506.8751 C271.435141,505.8251 264.131582,504.2151 257.245141,501.6751 C249.622257,498.8551 244.14384,494.7051 239.014684,488.4851 C236.588812,485.5351 237.756344,479.2551 242.587131,479.8451 C249.893049,480.732827 256.562502,481.802786 263.566678,483.968204 L264.569656,484.2851 C271.545907,486.5251 278.770633,488.1951 286.064213,488.9051 C301.003629,490.3551 316.170563,488.8951 330.481308,484.3551 C353.782046,476.9551 373.84962,460.4651 386.712426,439.7451 C401.980148,415.1851 403.706498,387.3051 403.485964,359.0651 C403.249622,328.076679 402.243947,297.070308 400.602152,266.114008 L400.322652,260.9551 C399.454487,245.0251 398.616259,229.0851 397.878819,213.1451 C397.649304,208.1451 397.300042,203.1051 396.670373,198.1151 C390.913544,194.7351 385.754451,190.0751 382.391561,184.3251 C375.635844,187.1251 368.530865,189.1451 361.993686,190.7551 C346.851698,194.4871 331.130935,195.3931 315.718519,193.0561 C311.561308,194.7771 307.321272,196.2901 303.016373,197.5921 C301.852833,198.1091 300.689293,198.6171 299.526751,199.1151 C289.147694,203.5651 278.619951,207.3351 267.664114,210.0951 L264.972636,210.7677 C259.206973,212.192021 252.944325,213.594645 246.808207,214.0351 C245.800338,214.4251 244.712637,214.7551 243.52415,215.0451 C237.936962,216.4051 232.138222,216.8351 226.411329,216.3551 C220.832124,215.8851 216.800648,210.2351 219.87415,204.9451 C222.119403,201.0851 224.385612,197.2351 226.670781,193.3951 C218.717595,196.7151 210.504958,199.4751 202.222468,201.8151 C193.860148,204.1751 185.37808,206.1651 176.885036,207.9951 C172.344635,208.9651 167.785274,209.8251 163.254852,210.7951 C160.011709,211.4851 155.032236,211.8451 152.386829,213.9851 C149.464008,216.3351 148.635759,221.8151 147.527103,225.1951 C146.070184,229.5851 144.703074,233.9951 143.455711,238.4551 C140.971962,247.3551 138.936266,256.3851 137.359599,265.5051 C135.782932,274.6351 134.724171,283.8551 134.135416,293.1051 C133.547658,302.3451 133.806112,311.6451 132.859114,320.8451 C132.349192,325.7251 127.121245,328.2351 123.259409,324.8251 C122.806367,324.4251 122.349777,324.020656 121.897622,323.611767 L121.223713,322.9951 C117.919698,319.9951 114.71647,316.8151 112.073059,313.2351 C111.594072,312.5751 111.135042,311.8851 110.705949,311.1851 C110.636097,311.1851 110.576224,311.1651 110.506371,311.1151 L109.773412,310.562389 C101.702825,304.542573 88.2195892,296.6944 80.3501266,306.6951 C77.8424652,309.881026 76.5585678,313.937734 75.4929793,317.851461 L73.6232183,324.855888 C72.4138164,329.428433 71.2756449,334.026433 70.6097194,338.7051 C69.1029051,349.1851 69.8613017,361.2651 77.0570886,369.6651 C79.9310127,373.0251 83.8926371,375.4251 88.3122932,376.0551 C90.7780802,376.3951 93.2129325,375.9751 95.6577637,375.6651 C98.1425105,375.3551 100.536449,375.8551 103.022194,375.6151 C106.97384,375.2251 108.70019,379.9651 107.223312,382.9451 C106.425,384.5451 105.485985,385.9251 104.419241,387.0951 C105.276428,387.8351 106.095696,388.6351 106.88403,389.4751 C109.219093,390.2251 111.313665,391.8351 112.88135,393.9651 C114.148671,395.6851 114.806281,397.5551 114.917046,399.5251 C115.055753,400.0151 115.1755,400.5151 115.286266,401.0251 L117.427124,404.50702 C117.897984,405.2707 118.367152,406.0251 118.837757,406.7651 C124.286238,415.3651 130.334451,422.6451 137.848565,429.5051 C145.08327,436.1051 152.935669,442.0151 159.7323,449.0951 L160.532936,449.935719 C166.869203,456.626658 173.548091,464.726181 171.068333,474.4551 C170.429684,476.9551 166.946049,478.7551 164.671857,477.0651 C157.357321,471.6251 153.674108,463.0051 147.468228,456.4051 C141.080732,449.6051 134.00569,443.4951 127.600232,436.7151 C121.54204,430.3151 116.762146,423.0651 113.160759,415.0851 C111.7228,416.6751 109.628228,417.8051 106.724367,418.2451 C101.734916,418.9951 97.0837489,416.0651 94.909346,411.7351 C93.5113017,412.3551 92.0853165,412.9151 90.6473565,413.3551 C83.0833481,415.6751 78.3244093,407.2451 81.1783755,401.0151 C82.7041498,397.6751 84.6101203,394.7751 86.9761181,392.3351 C79.5807532,391.3151 72.0566603,387.4851 67.1969346,382.7051 C55.0037131,370.6951 53.3272574,352.6451 56.0714557,336.5951 C57.5283755,328.0851 60.0420612,319.4751 63.3061603,311.4851 C63.8739599,310.0951 64.4836709,308.6951 65.1512595,307.3151 C64.7820401,307.3051 64.4028418,307.1451 64.1633481,306.8351 C61.9580105,303.8151 59.2746835,301.3451 57.6371456,297.9651 C56.1303312,294.8651 54.4548734,291.7251 53.2663861,288.4951 C50.8225527,281.8851 49.6250844,274.4251 48.8267722,267.4351 C47.1802532,253.1251 47.8179051,238.9051 50.0042827,224.6851 C53.7254156,200.4651 62.7144114,177.2871 75.9574135,156.9491 C75.2363665,156.569386 74.5453784,156.111059 73.9014162,155.569083 L73.5834325,155.2911 L73.0665253,154.8231 C69.2875148,151.3961 69.6138249,144.9731 73.0665253,141.5021 L74.1569959,140.406708 C75.5378206,139.03202 76.7285831,137.9429 78.9590675,136.4461 C79.2883713,136.2251 79.6246603,136.0171 79.9649409,135.8231 C78.7974093,133.6611 78.3922658,131.1331 79.2055464,128.3441 C82.0395549,118.6281 95.9900612,118.9721 104.832367,123.2091 C114.614686,114.4601 125.461753,106.8651 137.218897,100.7151 C165.220696,86.0751 196.882757,75.8651 227.798397,69.6251 Z M83.0547086,325.5251 C88.2836538,323.8151 95.2289703,327.4051 99.9290335,329.5651 C105.886439,332.3051 110.955721,336.3551 115.865342,340.6351 C118.310173,342.7751 118.748247,346.2751 118.140531,349.2651 C118.07966,349.5651 118.020785,349.8751 117.949934,350.1851 C117.301306,353.3751 113.748816,355.8851 110.605462,355.7951 C104.029365,355.6151 100.896987,349.9251 97.1738584,345.1051 C96.7357846,345.8851 96.1869449,346.6051 95.5073816,347.1451 L95.0485021,347.505047 C93.5036839,348.68386 91.8006728,349.626009 89.7595335,349.5351 C88.3125926,349.4651 86.926523,349.0951 85.6482255,348.4251 C82.4549766,346.7351 81.0489492,342.5951 81.9161158,339.2251 C82.4549766,337.1051 83.6923605,335.4451 85.3089428,334.2951 L84.7063438,333.882073 C83.4170042,332.982864 82.2410543,332.034968 81.3246161,330.636103 L81.1178036,330.3051 L81.1976348,330.3051 C80.1997445,328.5851 80.8493711,326.2451 83.0547086,325.5251 Z" id="ðŸ–-Ink" fill="#000000"></path>
                    </g>
                    <g id="ðŸ–-Ink" transform="translate(159.000000, 186.000000)" fill="#000000">
                        <path d="M126.149889,196.292214 C131.744002,187.090211 143.667824,209.632062 144.934713,213.508101 C146.056772,216.941676 146.797464,220.458991 147.173947,224.017014 C151.510872,224.989057 156.01445,224.990851 160.458249,224.139019 C167.062878,222.871873 171.100325,219.321223 176.840498,216.27243 C180.80528,214.165719 185.802087,216.636182 187.863888,220.130132 C190.289134,224.242684 188.744036,228.511189 185.554301,231.577101 C179.505319,237.390824 167.603613,238.726425 159.707644,237.182493 C155.183676,236.298273 151.03744,234.601718 147.375949,232.136142 C147.351679,232.596242 147.335471,233.056465 147.299179,233.515885 L147.229265,234.312833 C146.622587,240.760805 144.850336,248.868644 139.841994,253.064289 C131.627701,259.946669 121.490148,246.710667 129.471775,239.836072 L129.719209,239.629726 C134.680373,235.621175 135.762718,224.866141 135.495556,218.942309 C135.320385,215.075928 134.616096,211.160035 133.395334,207.477648 L133.144299,206.744368 C132.776832,205.704151 128.770187,195.83676 127.322375,197.093402 L127.253261,197.164261 C126.656242,197.877109 125.691416,197.04675 126.149889,196.292214 Z M170.814304,144.367155 C178.365682,148.9572 189.871664,159.660291 181.748119,171.039573 C172.185929,181.073062 158.418535,169.568982 151.634201,164.366134 C145.343449,160.333898 138.275437,170.704507 144.112,175.412823 C193.135736,211.708059 213.030606,145.567387 174.633685,138.970386 C170.406047,138.243425 168.835891,142.947174 170.814304,144.367155 Z M90.1787,101.9403 C97.5587,100.6313 105.1187,102.4663 111.2257,106.7843 L111.688541,107.117181 C117.57206,111.42005 124.154854,118.975479 120.7787,126.3923 C119.4237,129.3703 115.3657,129.8373 112.7907,128.4873 C108.5037,126.2393 107.7267,120.7083 103.9017,117.6473 C100.7647,115.1383 96.5407,113.6163 92.5007,113.9833 C83.0097,114.8453 77.1717,124.2063 74.2237,132.2733 C73.8467,133.3053 72.3317,133.7063 71.7397,132.5983 C64.7887,119.6063 77.0927,104.2623 90.1787,101.9403 Z M208.3893,97.0373 C222.5263,95.8723 239.0733,110.5283 235.3513,125.4503 C233.5663,132.6103 222.9453,132.4053 221.0573,125.4503 C220.0183,121.6233 220.1223,118.2373 217.3673,115.0593 C215.0933,112.4353 211.8623,110.9113 208.3893,111.1453 C204.5613,111.4033 201.0303,113.3163 198.3473,116.0053 C195.9243,118.4333 194.4753,121.9863 191.9653,124.1353 C191.3473,124.6633 190.5203,124.6973 189.9103,124.1353 C185.5903,120.1523 188.1833,111.8603 190.9223,107.7023 C194.8423,101.7523 201.2253,97.6283 208.3893,97.0373 Z M63.2578,75.4751 C72.3268,67.4471 88.8058,59.6941 101.0348,63.6451 C108.0658,65.9161 111.1308,77.2451 103.2818,80.8361 C94.1928,84.9941 83.7138,83.3021 74.4628,87.6121 C70.5778,89.4231 66.9238,91.6861 64.2188,95.0051 C62.0878,97.6211 59.9198,101.0631 56.8378,102.5711 C56.0278,102.9681 54.9308,102.9781 54.2818,102.2421 C47.5258,94.6001 57.3588,80.6961 63.2578,75.4751 Z M192.8016,63.2466 C198.4066,61.6736 204.6246,61.7056 210.3186,62.6936 C216.0106,63.6816 221.7896,66.0406 226.4366,69.4816 L226.976058,69.8845105 C232.049154,73.7073503 238.103014,79.2694621 237.7786,86.0416 C237.5076,91.6966 231.5586,95.5216 226.4226,92.5576 C222.2356,90.1406 220.2656,85.2986 216.7206,82.0746 C213.7956,79.4136 210.3596,77.3156 206.6936,75.8456 C202.6216,74.2126 198.5426,73.4476 194.1726,73.3746 C190.8076,73.3186 187.4226,74.4226 184.1206,74.7756 C184.3926,75.3336 181.7826,75.0736 180.2866,74.5786 C179.1786,74.1066 179.1726,72.7056 179.5566,71.7966 C181.4616,67.2936 188.3926,64.4826 192.8016,63.2466 Z"></path>
                    </g>
                    <g id="Group" transform="translate(22.000000, 281.000000)">
                        <path d="M393.2574,70.3562 C391.3724,46.4732 361.2574,36.3562 346.2574,33.3562 C296.3094,21.6142 253.8154,51.7402 194.2574,52.3562 C188.2464,52.4502 171.0564,51.4362 163.0624,49.3252 C122.5034,40.1092 81.9864,30.3062 42.1904,18.2192 C36.3394,19.5892 34.6084,27.2262 38.6254,31.5772 C76.7414,45.0942 135.0544,57.1982 165.8484,58.5762 C165.2574,98.3562 144.2574,138.3562 115.2574,160.3562 C161.3804,211.3612 268.9494,228.1352 332.2554,201.3622 C363.3964,192.0162 396.2574,108.3562 393.2574,70.3562" id="ðŸŽ¨-Color" fill="#FFFFFF"></path>
                        <path d="M38.9721,19.4231 C37.2571,19.3561 38.2571,14.3561 42.1201,15.0691 C91.9641,26.7261 154.0641,48.9301 205.2971,48.7671 C242.9861,47.5331 276.7571,26.5431 314.6541,26.4161 C340.1291,26.9041 372.6131,30.5271 390.4411,50.9691 C413.9561,125.5471 361.0031,226.9831 277.6861,227.5701 L261.916329,226.429119 C208.162751,222.468898 149.27444,216.13275 114.6271,170.5281 L114.3571,170.7601 L114.3571,170.7601 C109.1761,167.2841 109.4651,159.7771 113.8681,155.9161 L113.9991,156.1221 L113.9991,156.1221 C114.0831,155.9861 114.1761,155.8561 114.2661,155.7231 L114.2101,155.5481 L114.2101,155.5481 C115.9041,153.7701 117.8301,152.1071 119.5811,150.6181 L119.5901,150.6471 L119.5901,150.6471 C145.6061,128.9721 162.5931,96.1971 163.5711,62.2581 C154.9581,64.6241 10.2521,34.6241 36.0831,27.3031 C54.5591,33.5491 73.1441,39.1901 92.1041,43.6801 C92.4221,43.5011 92.8781,43.5481 93.0531,43.9011 C116.2471,49.6091 139.9091,52.8711 163.6021,55.5121 C163.5771,54.3801 163.5341,53.2481 163.4761,52.1141 C121.3481,43.9131 80.0481,31.7371 38.9721,19.4231 Z M380.0951,49.6901 C293.6861,6.0391 250.7941,70.5281 167.2251,52.7721 C175.9681,91.7781 154.3791,133.8291 125.0561,159.3151 C167.6621,196.1911 186.1021,201.7751 241.9921,207.7601 L249.293502,208.629503 C260.271331,209.929588 271.352191,211.142282 282.3641,211.3321 C339.4841,207.1751 382.6451,147.7471 389.1041,93.9021 L389.139106,92.4146641 C389.428627,78.7495503 388.80096,64.2848719 382.7471,51.7661 C381.6321,51.3781 380.6631,50.6791 380.0951,49.6901 Z M259.7989,83.9558 C262.7849,83.2838 265.8319,86.5418 263.9809,89.3948 C257.9999,98.6198 243.3729,102.1938 233.1429,103.6438 C221.2959,105.3228 209.8119,103.9988 198.5579,99.9578 C197.9549,99.7408 197.9979,98.6748 198.7199,98.7608 C209.4059,100.0328 220.4219,99.1018 230.8049,96.2738 C241.3329,94.2228 249.8339,87.2208 259.7989,83.9558 Z M340.987868,77.3109 C340.9383,75.5579 349.5563,80.6299 350.9193,81.3129 C361.4453,87.6329 373.6293,88.0959 385.2383,90.5769 C387.9443,91.6149 387.9403,95.0549 385.2373,96.0929 C370.7483,99.9459 348.7593,89.8339 340.987868,77.3109 Z" id="ðŸ–-Ink" fill="#000000"></path>
                    </g>
                </g>
            </g>
        </g>
    </g>
</svg>