<?xml version="1.0" encoding="UTF-8"?>
<svg width="1353px" height="1855px" viewBox="0 0 1353 1855" version="1.1" xmlns="http://www.w3.org/2000/svg" xmlns:xlink="http://www.w3.org/1999/xlink">
    <title>a person/sitting</title>
    <g id="Introduction" stroke="none" stroke-width="1" fill="none" fill-rule="evenodd">
        <g id="a-person/sitting" transform="translate(200.000000, -245.000000)">
            <g id="BODY" transform="translate(-81.000000, 637.000000)">
                <path d="M214.632943,323.06912 C202.54121,329.854265 192.505338,334.488821 183.049403,337.654882 L169.143194,342.30989 L182.221944,348.944709 C191.105103,353.451437 199.552542,359.198613 208.046007,366.517571 L214.601236,372.167598 L217.764806,364.11337 C221.919485,353.533247 223.941593,341.497923 223.773851,328.341797 L223.640885,318.015286 L214.632943,323.06912 Z M795.487176,357.241301 C784.170738,377.681616 770.510005,397.804915 757.298289,417.265551 C728.139845,460.215982 697.988248,504.629796 688.704145,557.741071 C687.982037,562.14315 687.465856,572.094696 687.155602,587.595711 L695.798398,584.072753 C724.660225,572.306381 755.282318,563.553696 784.894892,555.090416 C796.341227,551.819025 808.17521,548.43719 819.774969,544.919345 C824.498334,543.654353 829.196128,542.175631 833.741523,540.744972 C844.768504,537.275191 855.185887,533.996641 866.138203,533.438286 L869.472583,533.268529 L871.140796,530.376534 C886.230403,504.217676 874.913965,479.282905 861.955907,455.982297 C854.172276,438.997446 844.160952,423.040339 834.476928,407.603749 C824.440033,391.605736 814.061517,375.063685 806.478358,357.751593 L801.498266,346.385068 L795.487176,357.241301 Z M238.559682,573.932361 C255.714354,591.926547 271.648807,610.210136 285.921184,628.274883 L296.758944,623.289565 C291.52008,596.606098 275.255257,577.808126 245.571087,564.126369 L238.559682,573.932361 Z M812.447513,975.921807 C810.730205,975.921807 809.11927,976.588562 807.912347,977.798332 C806.688036,979.02651 806.016045,980.681124 806.021131,982.454363 L812.447513,982.433911 L812.447513,975.921807 Z M98.6016087,1420.81669 C88.5227782,1403.50153 87.0417404,1376.31697 102.14669,1361.57884 C97.0663616,1329.74746 107.047002,1294.17632 129.151082,1268.83352 L129.202223,1268.91022 C162.021325,1219.68902 164.433126,1202.15195 140.454223,1147.13143 C97.6002716,1145.49113 53.4585943,1145.00129 11.6162078,1134.97543 L13.1811165,1125.60917 C11.6325728,1125.19705 3.72108977,1123.11805 2.02219211,1122.67832 C2.2492573,1124.4219 3.42856434,1132.37387 3.39992549,1133.9661 C1.4453238,1136.10749 -3.27906408,1138.0965 -4.15766317,1133.88224 C-30.4798372,1021.20895 -54.0373392,910.769071 -79.6343366,798.263485 C-106.423938,684.712772 -160.299756,503.096874 -28.4219311,440.517074 L-31.1446677,428.88262 C-38.4271188,428.884665 -41.3533959,420.93679 -44.6918679,409.709343 C-59.5717975,369.540464 -30.6383737,330.155941 -3.58181766,305.311162 C33.4011693,268.231646 67.5192482,227.06468 100.524503,187.268038 C194.672686,72.6353828 322.775296,-80.3356452 486.525096,-54.3475666 L485.973798,-47.5951452 C511.589206,-44.3697724 538.334826,-37.5866722 564.271399,-42.3112196 C652.823754,-57.6741797 749.162809,-22.9191 803.625724,48.4409959 L805.626352,35.1406791 C805.814551,33.885913 806.262544,32.7252287 808.245785,32.7252287 C810.840669,32.6331921 812.212266,34.7592384 813.171667,36.7206414 C907.172564,73.9320768 946.111176,195.053315 976.150264,278.072408 C979.984802,292.104927 978.903685,296.256802 978.569224,297.082064 L973.114545,300.337093 C1029.76629,375.822475 1060.89774,466.616619 1087.6045,552.705645 C1096.4314,575.655492 1097.35193,591.5584 1082.61008,605.438548 C1179.81444,663.93908 1256.08993,755.109551 1212.96391,859.048571 C1156.67936,960.185588 1007.64073,1024.35558 895.696567,1082.44603 C851.242931,1106.56781 786.58663,1119.41204 745.681143,1158.91519 C742.948178,1162.95866 739.026701,1166.9009 736.650699,1166.57673 C717.665185,1169.38998 689.408866,1050.61977 693.703671,1041.10829 C673.662611,1048.28613 651.368287,1047.90468 630.406692,1051.64955 C632.284583,1055.782 638.434776,1061.37783 633.833126,1065.97659 C634.145085,1079.92525 632.003308,1095.00392 628.937928,1109.22154 C654.094092,1105.18317 653.52336,1118.40168 629.320461,1111.40587 C628.662791,1117.56619 626.984349,1133.27173 626.342021,1139.22548 C633.566171,1136.0451 647.944921,1133.81168 652.980245,1138.78677 C650.923362,1145.4175 633.105904,1139.17333 626.242807,1141.13882 C622.228254,1170.95767 620.919049,1200.27338 618.102214,1230.0094 C639.519984,1250.44358 672.974255,1255.27243 692.087621,1277.3735 C708.281869,1294.19473 705.94678,1322.42441 686.94797,1335.95584 C698.584549,1349.6243 689.271808,1372.31338 672.280786,1376.02246 C649.133433,1381.43421 624.937694,1373.95061 602.114574,1367.66349 C564.176277,1355.14957 524.442937,1335.64292 480.654131,1308.0309 C463.330694,1297.22376 450.427868,1280.243 444.297108,1260.20253 C399.871088,1123.06487 387.999261,1029.87982 408.969038,983.107824 C420.935668,974.053463 434.274867,979.641623 445.323458,974.696751 C450.589443,972.339923 455.335078,969.170979 459.163741,957.93069 C401.527027,952.262256 317.50677,962.795338 271.305141,935.134237 L272.930396,931.670592 C268.66423,928.943239 259.29012,917.532742 255.72356,913.86457 C262.151959,991.311356 267.319227,1070.76249 269.876267,1147.93726 C278.351322,1162.21419 285.547856,1176.99118 293.448088,1193.47801 C298.942657,1198.88261 308.556106,1208.14661 302.915275,1214.27625 C302.914252,1214.27625 350.353489,1325.53423 364.850885,1381.77372 C378.653789,1382.35765 384.249616,1405.77483 383.723889,1421.32903 C381.62507,1449.63541 345.354986,1452.63887 313.5587,1455.41224 C291.802377,1457.69986 269.432365,1458.88379 247.394768,1458.88379 C207.577557,1458.91372 108.020723,1456.16898 98.6016087,1420.81669 Z" id="ðŸŽ¨-Background" fill="#FFFFFF"></path>
                <path d="M292.416085,-13.248674 C359.999686,-58.2014133 447.741971,-81.8711913 526.120373,-52.4368518 C527.051136,-52.1096105 526.6819,-50.7495135 525.710224,-50.9642656 C513.324943,-53.6844596 500.743282,-55.2081773 488.092068,-55.7297182 C513.735093,-52.5943367 538.619187,-45.8593001 564.587467,-50.3987516 C651.324323,-64.7390824 743.30209,-35.2822452 800.929598,32.1857236 C802.419842,22.2723551 814.725343,22.6405016 818.736828,29.6496029 C895.376443,56.6725824 938.783739,158.192062 967.732504,228.64304 C971.133368,241.200928 994.753262,293.346842 983.410231,300.114603 C1037.39958,374.149897 1067.77722,461.815817 1094.73252,548.531715 L1095.50375,550.641114 C1101.62253,567.613111 1106.29145,586.820347 1093.33228,601.923191 C1147.0915,634.823221 1196.7973,679.014102 1220.29445,738.894161 C1257.71828,827.223768 1210.03049,902.058758 1135.6779,949.914742 C1061.99115,1003.31849 982.161372,1047.78241 899.641587,1085.96432 C871.892584,1098.78809 843.795824,1110.82444 815.536436,1122.48344 L812.723961,1123.63336 C790.52458,1132.76959 768.123806,1143.50903 751.518372,1161.08769 C719.229089,1208.25443 689.403769,1066.96796 689.075445,1047.27826 C673.932652,1051.83407 657.256657,1051.93633 641.62598,1054.31497 C643.611267,1057.72032 643.763666,1062.14831 641.348797,1065.77864 C641.385619,1077.30572 640.165399,1088.92381 637.913158,1100.34249 C661.903311,1098.21338 661.072784,1122.43231 636.062883,1116.84773 L634.814025,1128.55683 L634.814025,1128.55683 C646.232744,1125.01649 670.349727,1130.67265 656.22259,1144.29612 C648.824561,1147.95407 640.942739,1144.58143 633.054781,1144.97003 C629.655963,1171.73429 628.3621,1198.51695 625.875634,1225.39983 C647.303633,1244.04236 679.113216,1248.98166 698.135551,1271.35679 C714.759382,1289.54732 715.1726,1318.00607 696.143105,1335.12795 C706.366152,1352.59651 694.007465,1375.35103 675.103776,1379.94059 C650.737227,1385.73481 625.218986,1378.01396 601.705465,1371.49368 C558.944488,1357.40659 518.479192,1336.10682 480.407538,1312.21725 L478.753757,1311.17695 C459.915529,1299.42387 446.281389,1281.13313 439.801849,1259.95345 L438.416225,1255.66167 C415.406299,1184.13934 374.480287,1043.85202 405.181567,977.587091 C419.647256,961.546128 442.963373,980.225475 451.392401,961.326262 C397.008243,957.067011 309.378468,966.543717 265.06598,935.443515 C269.41704,998.003885 275.87101,1060.5254 275.613261,1123.26984 C274.508619,1131.52144 280.079899,1136.68367 277.840954,1145.01094 C285.930407,1158.84916 292.914196,1173.27539 299.842753,1187.71696 L300.280471,1188.12557 C307.474659,1194.94444 316.722431,1208.77993 307.257147,1216.89155 C339.46972,1264.08999 356.944534,1319.79567 371.22407,1374.58099 C386.41289,1378.06407 392.150889,1406.33772 391.209898,1419.85279 C386.9468,1456.16943 343.887263,1456.40361 315.593099,1459.46945 C299.06439,1461.20792 282.48454,1462.29191 265.874005,1462.74187 C232.265289,1463.65201 198.613614,1461.87263 165.281058,1457.49373 C138.126312,1455.1151 108.106657,1448.01498 94.5819589,1421.71398 C83.6777157,1402.83522 81.9757496,1374.50532 97.0581968,1357.56444 C92.6493886,1325.11895 102.984793,1291.29933 123.180626,1265.71758 L123.795634,1264.9449 L123.744152,1264.92528 C123.281091,1264.72166 123.322238,1263.95584 125.212272,1263.57317 L125.421912,1263.53368 L126.329094,1262.12972 C156.003701,1216.13876 159.701156,1203.52874 137.684455,1151.07513 L117.677765,1150.35951 C80.6042429,1149.0018 43.1421757,1147.04965 7.26516551,1137.83208 C2.18279198,1142.06577 -6.75764413,1141.57593 -8.75213566,1133.27218 C-34.8513358,1021.60208 -58.7985307,909.412485 -84.2451741,797.580812 C-110.693155,679.887427 -167.683449,501.21977 -29.7710079,432.974603 C-43.8572321,432.977671 -46.996255,416.078721 -50.4196207,405.414743 C-62.9705978,363.97269 -35.3146715,325.681358 -6.3884075,298.774959 C95.1557587,196.854608 171.55399,68.4502042 292.416085,-13.248674 Z M98.7662998,1370.04052 C96.8577248,1424.90867 138.389175,1438.06582 185.13392,1439.46682 C214.262701,1442.23815 243.60832,1443.08693 272.849611,1441.94261 L286.623839,1441.14512 C309.62849,1439.79122 332.806925,1438.09906 355.195518,1432.85041 C369.939413,1429.82036 373.635871,1416.63458 368.310067,1403.74638 C366.008731,1404.76901 363.287017,1404.84059 361.159559,1403.34756 C358.776398,1401.68067 357.048861,1399.91152 355.738634,1397.82638 C279.989891,1431.52815 184.674675,1427.83748 111.265113,1389.06142 C101.858273,1388.60022 100.637031,1377.36664 98.7662998,1370.04052 Z M282.904917,1196.36841 C255.373774,1179.71898 199.618019,1172.48081 173.023776,1193.43244 C174.846435,1203.95938 170.585383,1213.69686 166.590263,1223.07846 C178.723931,1220.18237 284.269354,1205.96374 269.361808,1231.90477 C261.015628,1238.63265 249.653164,1234.00116 240.006984,1233.09 C214.136895,1230.93941 188.087813,1231.62355 162.294435,1234.55338 C160.046285,1240.85585 159.177914,1247.92426 156.381534,1253.86983 C182.505301,1245.25118 209.835883,1241.1277 237.24649,1239.65367 L238.769377,1239.57449 C250.736326,1238.93944 264.739702,1236.29083 273.648431,1246.06614 C281.240795,1256.44686 264.389899,1263.58992 255.708235,1262.5724 C218.733431,1261.46387 181.682938,1262.83318 144.741887,1264.42439 L143.118017,1267.10313 C117.013448,1310.31285 111.392474,1327.32959 121.943314,1379.15215 C121.882968,1379.10101 121.820576,1379.06011 121.769435,1379.00898 C121.728523,1381.812 120.829467,1384.33688 118.915778,1386.21851 C198.524629,1412.04911 272.672664,1410.58164 351.780335,1384.9617 C340.213307,1326.86715 317.259267,1271.99491 300.19051,1215.511 C295.685005,1212.9892 294.348184,1207.41689 290.973914,1203.73031 C287.562822,1203.43886 284.183437,1200.74526 282.904917,1196.36841 Z M473.681611,961.971541 C438.99587,986.494192 454.660299,1015.47346 464.250224,1048.77129 C478.267919,1097.71945 489.037151,1147.58592 501.031716,1197.05152 C508.09733,1240.98675 535.883154,1279.094 575.858901,1298.85529 C593.841032,1308.32893 613.570133,1314.45653 633.730862,1316.97628 C641.514493,1317.76678 650.138879,1316.93231 655.352173,1323.90971 C658.309135,1327.11054 658.635413,1332.36686 655.352173,1335.50735 C645.043209,1347.19396 615.077764,1336.65065 601.176669,1333.73616 C498.165785,1302.51631 482.509538,1227.88891 462.640311,1134.32446 C453.012542,1082.35955 429.355827,1027.62946 443.629227,974.927232 C434.996658,979.542358 421.733801,977.959328 415.611224,986.677243 C401.476927,1076.21764 432.653387,1167.05167 456.681384,1252.6529 C462.016393,1270.6389 473.278622,1286.45796 489.666182,1295.90092 C524.622971,1317.24626 561.262291,1336.75189 600.02907,1350.22401 L601.204634,1350.55727 C620.878361,1356.20176 663.379521,1371.42954 678.47907,1355.50896 C681.629343,1350.85599 681.486149,1345.87579 677.517622,1342.78643 L675.594216,1342.05521 C671.90106,1340.62773 667.552405,1338.6177 666.879551,1334.30193 L666.839422,1334.00408 L666.981593,1333.95193 C663.770973,1328.06261 670.001969,1321.46563 675.583477,1320.02372 C683.449956,1319.73943 687.10857,1314.50152 689.904949,1306.81135 C694.92084,1269.16939 642.058632,1259.1108 624.534722,1233.35691 C622.677288,1242.75794 608.205462,1240.96629 608.281151,1231.48447 C607.709396,1202.68314 613.970054,1173.61797 618.255654,1145.20524 C611.659512,1144.92299 604.650153,1147.58899 598.22789,1146.14504 C597.27974,1140.21174 615.806009,1133.99415 620.904748,1132.0348 C621.958248,1127.12515 623.073118,1122.23698 624.259585,1117.37029 C583.052367,1119.85937 602.193349,1106.647 628.217883,1102.12289 C629.027954,1099.36267 629.73808,1096.52731 630.384977,1093.72373 L630.703327,1092.32508 C632.349038,1085.29961 633.219454,1078.66275 633.505843,1071.80091 C615.287441,1080.14863 594.792251,1085.21371 575.050876,1080.96367 C539.381185,1072.67832 520.891737,1029.38327 535.211164,996.89331 C531.953494,985.3693 538.349164,973.113088 544.131143,963.391974 C520.648307,963.310163 497.153197,962.665907 473.681611,961.971541 Z M124.951416,1264.09612 C124.643805,1264.2802 124.354028,1264.48785 124.073457,1264.71349 L123.795634,1264.9449 L123.865549,1264.9638 C124.203424,1265.03379 124.69544,1264.84264 124.992329,1264.1268 C124.929937,1264.18816 124.929937,1264.15748 124.951416,1264.09612 Z M127.119787,1263.37006 C126.557238,1263.3871 126.079924,1263.43255 125.664168,1263.49457 L125.421912,1263.53368 L125.344739,1263.65457 C125.20019,1263.87342 125.110391,1263.96508 125.002557,1264.1176 C125.596813,1263.63594 126.402793,1263.41198 127.119787,1263.37006 Z M169.699624,1229.05062 C167.778775,1229.30525 165.860995,1229.53534 163.929918,1229.77771 L163.551476,1230.80954 L163.551476,1230.80954 C165.597108,1230.19596 167.64274,1229.61306 169.699624,1229.05062 Z M254.950328,1145.76768 C220.67985,1149.2569 186.141394,1147.10631 151.860687,1151.00355 C158.582635,1160.28698 163.377597,1170.56236 167.398287,1181.40632 C195.554371,1154.82102 240.722956,1162.95297 274.598627,1172.74465 C272.31877,1166.08631 270.218928,1159.36661 268.338992,1152.58862 C263.269915,1153.4057 257.481799,1150.55768 254.950328,1145.76768 Z M1090.82638,605.175152 C1043.9814,652.906376 973.182069,666.027732 912.591462,687.099009 C897.880297,696.311877 905.070695,714.567855 906.945517,728.432663 C910.453776,751.191279 913.238905,774.059315 915.261012,796.999959 C922.745981,788.344424 942.355413,787.213396 953.329207,783.695551 L954.791175,783.365604 C969.430336,780.006488 984.644572,774.968894 999.581977,778.234711 C1005.60636,779.543676 1006.01447,787.879128 1001.22769,790.84373 C989.102601,798.373402 974.268205,798.589966 960.36929,800.236992 L956.814593,800.662689 C944.514802,802.126081 932.11863,803.461807 919.760381,802.941435 C918.2057,803.186866 916.640791,802.593741 915.658888,801.540433 C917.198226,825.523135 920.285085,849.848419 919.238744,873.871004 C918.66699,878.135368 917.296416,882.778105 914.267858,885.93803 L914.167799,886.303326 C912.454298,892.37033 906.879975,903.201015 900.460862,895.182599 L899.255074,893.015277 C889.828168,876.005171 880.889693,858.219245 876.332629,839.224323 C874.815793,877.63837 873.588413,916.032988 872.056235,954.434763 L872.006186,955.356514 C871.615373,961.874869 870.341669,969.715541 866.103445,974.732933 C866.477795,977.713897 863.806199,979.450322 861.419969,978.384742 L861.103124,978.531143 C858.816038,979.554987 855.134717,980.500562 853.737597,977.708784 C845.688034,958.882178 837.116834,940.352135 829.261606,921.474398 C829.67687,931.162788 829.20842,940.871631 829.51731,950.568202 C829.671755,961.633051 831.727616,974.640896 826.448862,984.877415 C821.942334,993.843829 810.715903,996.189741 804.692539,988.386057 C799.86587,980.933134 797.129836,971.721289 792.737864,963.821478 C780.362811,1024.97471 749.026792,935.082526 743.273451,916.555551 C725.58896,926.894334 706.944044,935.627588 687.662936,942.612146 C692.966238,950.644899 691.683626,961.564535 693.350817,970.796832 C694.853334,984.5604 696.0398,998.335217 697.226267,1012.13151 L697.664413,1014.77189 C704.886777,1057.91865 715.405781,1102.0212 738.559291,1139.58078 C758.16054,1120.38807 783.87823,1109.06654 809.030302,1098.90058 C839.316912,1086.41428 869.357023,1073.3553 898.986984,1059.39641 C979.08065,1021.73911 1056.19997,977.591182 1128.08758,925.911587 L1130.53104,924.201344 C1170.48112,896.089763 1212.11233,859.22822 1213.13474,806.776295 C1216.58061,720.789532 1144.67459,662.131515 1090.82638,605.175152 Z M208.023523,556.43664 C139.634965,492.279945 34.9272287,409.327323 -59.5277986,470.278075 C-147.755921,544.944331 -77.8525731,723.973999 -59.8305522,820.387491 C-36.914356,921.733123 -12.6940692,1022.80162 9.77106512,1124.24134 C89.8800729,1134.81226 171.193958,1140.34979 251.698796,1130.82707 C250.78849,1059.30335 245.96182,987.870651 244.384637,916.320346 C242.917919,879.456605 243.427282,842.448673 237.902029,805.937739 C233.213439,776.249787 239.234758,740.3872 222.700935,714.454343 C216.581426,705.011384 206.628401,696.744449 204.403776,685.360539 C204.352636,684.827749 205.047128,684.653902 205.384657,684.950465 C210.2236,689.204603 214.110302,694.276844 219.243816,698.357135 L223.019141,701.280616 C229.158977,706.060787 235.274813,711.163098 239.077244,717.960939 C239.46796,715.06383 232.139482,689.243463 236.528387,692.323622 L237.355379,694.587572 C243.257444,710.820804 248.57807,727.243254 250.092975,744.610659 C255.886205,803.807602 259.123418,863.295994 264.084077,922.578838 C276.04898,927.972185 287.042209,935.90063 300.108685,938.76706 C321.509223,940.884212 342.939575,939.686761 364.377359,939.404308 L366.387173,939.380637 C428.937495,938.446977 491.29246,941.958686 553.796756,940.967758 C617.685945,943.446612 682.995826,926.709238 737.525224,893.086209 C707.649787,758.156407 810.226997,661.921876 857.654983,546.579516 C803.021257,560.360468 748.650396,575.162005 694.168047,589.682318 C701.521072,607.659119 677.740596,658.601398 668.790955,676.654896 C620.907816,771.059943 524.071673,832.757215 436.992173,742.657437 C437.033085,742.933547 437.062747,743.209657 437.094454,743.495993 C434.170223,740.82693 430.939147,738.477951 427.683523,736.225099 C423.309961,772.124501 411.480069,808.310239 389.154038,837.138159 L386.718646,840.193684 C379.754595,848.877915 369.672059,860.297543 358.521716,853.735433 C350.311571,849.295176 348.767119,840.652936 350.359643,831.932976 C323.535267,861.126997 294.309317,867.721934 312.638183,817.484246 L312.031548,818.112929 C301.771048,828.650362 274.537954,851.934214 271.765426,824.406424 C272.974395,810.701146 281.41672,798.466409 285.707433,785.628321 C281.124194,788.461004 275.969201,789.862006 270.722154,787.847426 C256.649226,782.447943 263.890765,766.352781 267.029787,756.218524 C274.978092,730.600637 283.088001,705.024678 291.333945,679.499851 C288.476197,664.326077 297.526074,649.227978 289.041814,636.038105 C285.410817,637.940196 280.520733,637.54137 277.013496,632.857728 C256.434435,605.451262 232.817609,580.059377 208.023523,556.43664 Z M10.7222842,1128.8943 C10.7437633,1129.04872 10.7437633,1129.18166 10.7529686,1129.33403 C11.5415599,1129.38619 12.3189002,1129.45675 13.1054458,1129.52833 C12.303558,1129.33403 11.5118982,1129.10087 10.7222842,1128.8943 Z M686.302591,1030.36499 C673.680016,900.386759 706.433658,961.598282 573.405165,963.074959 C574.00249,966.329988 569.724049,965.955705 571.235772,965.049656 C569.309809,957.866707 558.387155,978.915487 556.865205,981.645907 C553.992114,987.740777 552.681887,995.328687 551.670321,1001.99521 C544.541293,1039.33652 571.10792,1072.05043 609.847082,1056.17513 C604.860853,1055.75892 599.257866,1057.56182 595.119552,1054.3753 C595.140008,1054.36508 595.150237,1054.34462 595.16967,1054.32417 C591.464007,1047.68526 611.78941,1047.39688 615.831579,1045.62262 C631.582948,1042.33078 647.374207,1039.27209 663.033523,1035.57938 C670.664754,1033.77955 678.47907,1030.95811 686.302591,1030.36499 Z M814.196547,980.142642 C813.061221,979.477933 813.643203,981.656133 814.022668,980.551693 C814.073809,980.408525 814.144383,980.275584 814.196547,980.142642 Z M957.441951,286.125034 C900.505866,290.189985 863.644594,318.312291 823.238242,354.375314 C820.220934,356.983019 817.161691,359.539592 814.032896,362.014355 C831.687726,392.972412 850.722335,423.111343 869.120752,453.641941 L872.568777,459.384366 C877.934706,468.340928 883.174427,477.458557 886.368501,487.430636 C897.250242,521.86461 859.246485,582.473804 845.436421,616.282952 C779.352269,732.912802 717.277555,813.883568 777.404827,952.020336 C780.632834,943.303443 773.502783,912.87204 784.166664,911.687836 L783.951739,909.525134 C780.543168,874.410853 780.389859,832.118919 791.027715,801.111951 C785.140385,861.109613 791.521735,923.989044 814.257916,980.000496 C820.206615,926.899447 812.324793,867.580811 814.154611,813.034786 C814.084037,804.649226 826.765935,804.741262 827.124943,813.034786 L827.557415,827.118394 C829.043351,874.846607 831.610534,924.825473 859.363086,965.202027 C862.035705,903.737915 850.825639,838.994231 872.363079,780.065217 C874.123346,775.821305 880.463784,776.148547 880.64789,781.191132 C881.04372,801.250006 889.526958,869.150547 904.162434,880.927146 C908.183124,868.645368 907.772975,855.208019 907.127578,842.343342 C905.135132,795.72474 898.413184,750.23512 890.162126,704.268955 C888.669838,695.185962 891.342456,684.006578 900.746228,680.50305 C907.732063,673.85596 917.378242,669.140616 925.356208,665.35791 C976.056182,640.30656 1045.80406,645.132348 1080.09807,593.537631 L1081.76213,591.026343 C1085.76055,584.976445 1089.50838,579.002195 1091.1946,571.7454 C1086.57351,554.481372 1079.9293,537.65503 1074.28745,520.705971 C1069.24384,505.73161 1064.06684,490.806949 1058.63716,475.969263 L1056.81775,471.02664 C1032.577,404.848206 1001.71557,341.324519 957.441951,286.125034 Z M564.854422,963.289711 C563.556724,963.711162 562.529193,965.0103 561.425115,965.977957 L561.186329,966.179426 L561.860638,965.642475 C562.576221,965.065694 563.221412,964.528999 564.213908,963.772248 L564.854422,963.289711 Z M264.585257,929.195249 L264.892102,933.203956 L264.892102,933.203956 C266.855909,933.603804 268.779826,934.10387 270.70272,934.594732 C268.471958,932.978978 266.396664,931.189377 264.585257,929.195249 Z M554.656433,838.64122 C554.431414,837.854818 555.556511,837.394634 555.976889,838.086954 C572.524009,867.199166 605.098658,878.788624 636.46127,883.401704 C641.800371,884.650335 641.145768,892.023492 636.46127,893.576866 C618.930201,899.386423 598.688669,891.562286 584.338558,881.142716 C569.630462,870.47567 559.597658,856.066823 554.656433,838.64122 Z M870.124135,822.023698 C867.018865,844.431551 867.301162,867.285271 867.034207,889.905831 C868.057023,867.285271 868.905961,844.644258 870.124135,822.023698 Z M413.282578,861.486656 C416.536156,862.611548 419.901221,863.348864 423.214123,863.634178 C419.696658,865.312312 415.675968,864.472734 413.282578,861.486656 Z M158.140778,136.86206 C108.401228,193.176211 64.8568754,254.820305 11.3584758,307.74444 C-19.9887941,336.071272 -49.6463716,374.786995 -25.1990196,417.420411 C-20.0430033,419.455443 -19.1367882,427.049489 -23.5829701,430.622555 C-22.5212869,430.485523 -15.6980802,427.179363 -17.2312817,429.886262 C-30.9359955,435.735702 -42.9857928,444.213299 -53.3673769,454.470271 C11.3155175,406.892442 97.0827444,444.983339 153.497193,487.623913 C181.339272,507.96401 207.225726,530.380045 231.466469,554.504893 C240.140973,556.058267 249.110048,560.690777 256.340336,564.310885 C306.208761,588.263932 314.022053,620.632195 309.907264,672.372124 C294.940395,700.898369 287.860461,733.519221 277.432851,764.102996 C266.7076,787.878105 287.807275,771.854526 290.831742,761.484043 C298.174611,752.345589 301.717728,740.202232 306.218987,729.578479 L306.542199,728.822285 C307.820719,725.784053 310.561866,723.524043 314.090582,724.536446 C316.923565,725.348152 319.5508,728.851734 318.451171,731.886245 L316.191823,737.704587 C305.251672,765.819492 293.948455,794.08163 285.236938,822.892933 C314.673587,805.263826 329.248718,771.896454 344.702447,742.432459 C348.948157,734.599118 360.373014,741.501866 356.547681,749.355659 C352.998509,756.606101 349.37774,763.83609 345.542179,770.943364 C335.517558,792.300977 328.250449,814.835636 322.232199,837.629021 C355.319279,817.897388 366.851531,777.696808 376.368836,743.773126 C376.955932,734.094962 390.912259,735.999098 389.472134,745.500346 C385.932167,764.358654 380.53272,782.938805 372.084259,800.211015 L369.850428,813.270748 C368.363708,821.978248 366.89108,830.688777 365.487094,839.408396 C366.283868,839.019797 367.144057,838.968665 367.971515,839.173191 C397.286449,809.657041 409.020196,768.93492 419.255518,729.793783 C414.388958,713.23946 420.344817,696.310854 419.664644,679.244193 C422.253392,657.393673 415.205166,637.031078 405.444431,617.521356 C399.594945,557.166797 341.458074,530.987487 300.924892,495.511453 C251.280464,446.455925 225.178196,371.345848 155.399631,347.032836 C148.144796,347.494041 141.150779,345.936577 134.360302,343.596801 C134.063686,343.514991 134.012545,343.003676 134.360302,342.952545 C141.26738,341.824585 148.170366,340.061572 155.093809,338.80067 C156.959426,332.716025 164.418824,331.972574 170.027948,334.692768 C230.363873,308.250642 280.373447,261.754755 328.317955,217.516834 C281.503659,174.213595 220.891573,147.330716 158.140778,136.86206 Z M435.775021,750.695099 C436.777381,751.809765 437.65598,753.016467 438.311606,754.336682 C438.490598,754.675172 438.470142,755.078088 438.526397,755.451348 C437.666209,753.835593 436.755902,752.239269 435.775021,750.695099 Z M244.375432,567.654883 C261.043244,585.140822 277.047249,603.363053 292.110263,622.426909 C286.707748,594.913067 269.013028,579.010159 244.375432,567.654883 Z M802.229598,358.169269 C766.039293,423.536757 709.372209,480.957393 696.122649,556.753655 C695.05892,563.237124 694.9863,569.803427 694.853334,576.347232 C735.253549,559.876765 777.785314,549.615702 819.463027,536.974981 C835.260423,532.75459 850.601643,526.112613 867.197858,525.266898 C880.877001,501.553147 869.890933,478.340484 857.849318,456.710852 C842.161364,422.373005 817.345798,392.676872 802.229598,358.169269 Z M219.009591,326.375724 C208.545159,332.247661 197.753426,337.61851 186.371527,341.428827 C196.170106,346.398805 205.128953,352.677749 213.425015,359.825928 C217.592991,349.213081 219.153808,337.717705 219.009591,326.375724 Z M485.074761,-50.4427247 C479.641561,-2.55503933 479.905448,46.8584089 492.624167,93.5956363 C511.589224,166.432409 581.810668,234.528272 661.264051,220.247254 C741.430336,203.495563 780.833306,120.480561 797.35997,47.4842581 C755.144255,-6.07288416 689.057034,-39.575243 620.94566,-42.2719165 C576.65772,-44.0819704 526.590869,-29.8060652 485.074761,-50.4427247 Z" id="ðŸ–-Ink" fill="#000000"></path>
            </g>
            <g id="Head" transform="translate(345.000000, 180.000000)">
                <g id="Group">
                    <path d="M405.529013,304.0028 C403.376385,285.0878 406.162248,245.551755 406.348916,243.1498 C407.529013,227.96486 400.41409,168.0018 386.964001,173.5268 C364.401836,155.6658 334.351022,151.7218 306.251187,149.8378 C247.883535,145.9238 185.791007,154.9088 140.720927,194.1888 C118.432063,214.5878 96.7327917,244.2568 98.4770041,275.1488 C78.2261251,304.4308 49.6769304,344.5978 74.9086413,378.8308 C83.4853758,389.7678 97.1166413,393.8408 107.891042,402.1238 C129.562677,419.6038 143.15914,444.6898 165.036517,462.0658 C222.996777,514.1488 321.413756,525.0288 378.359629,465.7888 C422.394851,422.8848 415.274585,358.6988 407.529013,304.0028 C402.321608,267.230281 409.728568,340.904005 405.529013,304.0028 Z" id="ðŸŽ¨-Background" fill="#FFFFFF"></path>
                    <path d="M228.28,69.6251 C243.89,66.4751 259.919,64.5151 275.86,65.1051 L277.089049,65.1528353 C289.08318,65.6321989 304.2728,66.6926 314.736,73.6671 C315.338,73.0631 316.306,72.7531 317.184,73.1721 C329.618,79.1071 343.294,83.3981 356.386,87.6621 C369.418,91.9051 382.938,94.7061 396.597,95.8351 C401.736,96.2601 406.134,101.8091 402.88,106.7861 C402.106,107.9721 401.352,109.1701 400.601,110.3711 C401.857,110.2401 403.113,110.1051 404.369,109.9781 C408.502,109.5621 412.631,113.9731 412.386,117.9971 C412.233,120.5281 411.96,123.0291 411.556,125.5001 C413.13,125.4671 414.695,125.7031 416.207,126.3421 C423.863,129.5751 423.33,138.6941 422.757,145.6321 C421.963,155.2601 418.362,165.4581 411.676,172.6641 C416.668,177.8491 420.202,184.0411 422.31,191.3951 C423.839,196.7651 424.69,202.4851 424.27,208.0751 L424.136106,209.748718 C423.616704,215.81496 422.584043,222.531057 418.22,226.8951 C415.98,229.1451 413.22,229.9651 410.589,229.7051 C412.18,243.6851 413.2,257.7451 414.16,271.7551 L414.610164,278.451254 C416.751634,310.831125 418.360968,343.421874 417.94,375.8551 C417.549,406.1651 411.56,435.5851 392.97,460.1951 C376.039,482.6051 351.73,499.1251 324.23,505.4051 C309.41,508.7951 294.28,509.0351 279.28,506.8751 C272.009,505.8251 264.69,504.2151 257.789,501.6751 C250.15,498.8551 244.66,494.7051 239.52,488.4851 C237.089,485.5351 238.259,479.2551 243.1,479.8451 C250.421364,480.732827 257.104917,481.802786 264.123901,483.968204 L265.129,484.2851 C272.12,486.5251 279.36,488.1951 286.669,488.9051 C301.64,490.3551 316.839,488.8951 331.18,484.3551 C354.53,476.9551 374.64,460.4651 387.53,439.7451 C402.83,415.1851 404.56,387.3051 404.339,359.0651 C404.102158,328.076679 403.094357,297.070308 401.449091,266.114008 L401.169,260.9551 C400.299,245.0251 399.459,229.0851 398.72,213.1451 C398.49,208.1451 398.14,203.1051 397.509,198.1151 C391.74,194.7351 386.57,190.0751 383.2,184.3251 C376.43,187.1251 369.31,189.1451 362.759,190.7551 C347.585,194.4871 331.831,195.3931 316.386,193.0561 C312.22,194.7771 307.971,196.2901 303.657,197.5921 C302.491,198.1091 301.325,198.6171 300.16,199.1151 C289.759,203.5651 279.209,207.3351 268.23,210.0951 L265.532832,210.7677 C259.754979,212.192021 253.479091,213.594645 247.33,214.0351 C246.32,214.4251 245.23,214.7551 244.039,215.0451 C238.44,216.4051 232.629,216.8351 226.89,216.3551 C221.299,215.8851 217.259,210.2351 220.339,204.9451 C222.589,201.0851 224.86,197.2351 227.15,193.3951 C219.18,196.7151 210.95,199.4751 202.65,201.8151 C194.27,204.1751 185.77,206.1651 177.259,207.9951 C172.709,208.9651 168.14,209.8251 163.6,210.7951 C160.35,211.4851 155.36,211.8451 152.709,213.9851 C149.78,216.3351 148.95,221.8151 147.839,225.1951 C146.379,229.5851 145.009,233.9951 143.759,238.4551 C141.27,247.3551 139.23,256.3851 137.65,265.5051 C136.07,274.6351 135.009,283.8551 134.419,293.1051 C133.83,302.3451 134.089,311.6451 133.14,320.8451 C132.629,325.7251 127.39,328.2351 123.52,324.8251 C123.066,324.4251 122.608444,324.020656 122.155333,323.611767 L121.48,322.9951 C118.169,319.9951 114.959,316.8151 112.31,313.2351 C111.83,312.5751 111.37,311.8851 110.94,311.1851 C110.87,311.1851 110.81,311.1651 110.74,311.1151 L110.005491,310.562389 C101.917841,304.542573 88.4061,296.6944 80.52,306.6951 C78.007037,309.881026 76.7204252,313.937734 75.652584,317.851461 L73.7788699,324.855888 C72.5669111,329.428433 71.4263333,334.026433 70.759,338.7051 C69.249,349.1851 70.009,361.2651 77.22,369.6651 C80.1,373.0251 84.07,375.4251 88.499,376.0551 C90.97,376.3951 93.41,375.9751 95.86,375.6651 C98.35,375.3551 100.749,375.8551 103.24,375.6151 C107.2,375.2251 108.93,379.9651 107.45,382.9451 C106.65,384.5451 105.709,385.9251 104.64,387.0951 C105.499,387.8351 106.32,388.6351 107.11,389.4751 C109.45,390.2251 111.549,391.8351 113.12,393.9651 C114.39,395.6851 115.049,397.5551 115.16,399.5251 C115.299,400.0151 115.419,400.5151 115.53,401.0251 L117.675384,404.50702 C118.14724,405.2707 118.6174,406.0251 119.089,406.7651 C124.549,415.3651 130.61,422.6451 138.14,429.5051 C145.39,436.1051 153.259,442.0151 160.07,449.0951 L160.87233,449.935719 C167.221992,456.626658 173.915,464.726181 171.43,474.4551 C170.79,476.9551 167.299,478.7551 165.02,477.0651 C157.69,471.6251 153.999,463.0051 147.78,456.4051 C141.379,449.6051 134.289,443.4951 127.87,436.7151 C121.799,430.3151 117.009,423.0651 113.4,415.0851 C111.959,416.6751 109.86,417.8051 106.95,418.2451 C101.95,418.9951 97.289,416.0651 95.11,411.7351 C93.709,412.3551 92.28,412.9151 90.839,413.3551 C83.259,415.6751 78.49,407.2451 81.35,401.0151 C82.879,397.6751 84.789,394.7751 87.16,392.3351 C79.749,391.3151 72.209,387.4851 67.339,382.7051 C55.12,370.6951 53.44,352.6451 56.19,336.5951 C57.65,328.0851 60.169,319.4751 63.44,311.4851 C64.009,310.0951 64.62,308.6951 65.289,307.3151 C64.919,307.3051 64.539,307.1451 64.299,306.8351 C62.089,303.8151 59.4,301.3451 57.759,297.9651 C56.249,294.8651 54.57,291.7251 53.379,288.4951 C50.93,281.8851 49.73,274.4251 48.93,267.4351 C47.28,253.1251 47.919,238.9051 50.11,224.6851 C53.839,200.4651 62.847,177.2871 76.118,156.9491 C75.3954286,156.569386 74.7029796,156.111059 74.057656,155.569083 L73.739,155.2911 L73.221,154.8231 C69.434,151.3961 69.761,144.9731 73.221,141.5021 L74.313776,140.406708 C75.69752,139.03202 76.8908,137.9429 79.126,136.4461 C79.456,136.2251 79.793,136.0171 80.134,135.8231 C78.964,133.6611 78.558,131.1331 79.373,128.3441 C82.213,118.6281 96.193,118.9721 105.054,123.2091 C114.857,114.4601 125.727,106.8651 137.509,100.7151 C165.57,86.0751 197.299,75.8651 228.28,69.6251 Z M83.2303,325.5251 C88.4703,323.8151 95.4303,327.4051 100.1403,329.5651 C106.1103,332.3051 111.1903,336.3551 116.1103,340.6351 C118.5603,342.7751 118.9993,346.2751 118.3903,349.2651 C118.3293,349.5651 118.2703,349.8751 118.1993,350.1851 C117.5493,353.3751 113.9893,355.8851 110.8393,355.7951 C104.2493,355.6151 101.1103,349.9251 97.3793,345.1051 C96.9403,345.8851 96.3903,346.6051 95.7093,347.1451 L95.2494503,347.505047 C93.7013661,348.68386 91.9947545,349.626009 89.9493,349.5351 C88.4993,349.4651 87.1103,349.0951 85.8293,348.4251 C82.6293,346.7351 81.2203,342.5951 82.0893,339.2251 C82.6293,337.1051 83.8693,335.4451 85.4893,334.2951 L84.885427,333.882073 C83.5933615,332.982864 82.4149255,332.034968 81.4965498,330.636103 L81.2893,330.3051 L81.3693,330.3051 C80.3693,328.5851 81.0203,326.2451 83.2303,325.5251 Z" id="ðŸ–-Ink" fill="#000000"></path>
                </g>
                <g id="ðŸ–-Ink" transform="translate(159.000000, 186.000000)" fill="#000000">
                    <path d="M146.586567,240.926554 C139.864291,238.184203 133.866322,233.609781 129.481228,227.766254 C127.956691,225.734803 127.561405,223.589624 127.881219,221.627583 C128.240828,219.421406 129.546036,217.4219 131.326046,216.080693 C133.111571,214.735331 135.345035,214.071832 137.504329,214.410065 C139.380629,214.703969 141.248396,215.731287 142.726594,217.861908 L143.035427,218.287981 C145.642441,221.814933 149.039621,224.708755 152.91047,226.573991 C156.641339,228.371775 160.813939,229.21087 165.131898,228.722919 C173.355732,227.793938 179.024012,223.346401 185.048774,217.30672 C185.795561,216.544195 186.542826,215.757766 187.293714,214.958678 C187.767915,214.234308 188.425986,213.768756 189.156624,213.524488 C189.967867,213.253272 190.885573,213.268617 191.726122,213.56195 C192.536835,213.844871 193.261572,214.380994 193.747527,215.094538 C194.209389,215.772704 194.47125,216.610486 194.386283,217.574143 C193.834826,223.833283 190.562474,229.419299 185.914235,233.805502 C180.751772,238.67694 173.908551,242.047034 167.465957,243.229031 C160.36811,244.531047 153.135593,243.598228 146.586567,240.926554 L146.586567,240.926554 Z M170.814304,144.367155 C178.365682,148.9572 189.871664,159.660291 181.748119,171.039573 C172.185929,181.073062 158.418535,169.568982 151.634201,164.366134 C145.343449,160.333898 138.275437,170.704507 144.112,175.412823 C193.135736,211.708059 213.030606,145.567387 174.633685,138.970386 C170.406047,138.243425 168.835891,142.947174 170.814304,144.367155 Z M82.9633,102.1464 C83.7976284,91.7901242 99.5703,89.4384 101.1393,99.6864 C102.5443,108.8664 100.8903,117.2994 96.7553,125.5644 C92.8043,133.4604 82.8737826,129.776544 82.1227826,122.586544 C81.1160984,112.948648 82.4443,108.588596 82.9633,102.1464 Z M203.027,97.5615 C205.226,94.6815 208.401,92.7155 212.205,93.8265 C224.09,97.2995 220.587,114.1725 216.413,122.3855 C214.145,126.8455 206.814,127.9765 203.501,124.0495 C198.101,117.6455 195.515,104.8565 202.38,98.5485 C202.566,98.2225 202.773,97.8935 203.027,97.5615 Z M96.5879,56.8305 L98.465271,56.501905 C104.27307,55.49746 111.4944,54.5323 115.6029,59.2015 C117.7819,61.6775 118.5319,66.2795 115.6029,68.6495 C110.4509,72.8195 104.7549,71.2035 98.5809,71.5565 C93.4929,71.8485 88.6029,72.6905 83.7019,74.0915 C72.9499,77.1645 64.1889,82.7745 55.0059,88.9345 C53.8009,89.7425 52.5709,88.2015 53.1459,87.0745 C58.4469,76.6915 68.7199,68.1625 79.0099,62.9635 C84.5019,60.1885 90.5119,57.8865 96.5879,56.8305 Z M192.192876,52.1793876 L193.629806,52.4734684 C209.267042,55.742077 229.583473,62.2713911 236.988459,77.6308459 C237.270623,79.8027272 236.97249,80.2682047 236.730054,80.5723213 L236.649336,80.6735209 C236.449568,80.9332186 236.290169,81.2912104 235.348782,81.5868073 C235.087547,81.5245653 234.823712,81.4586426 234.557082,81.3887687 C231.162766,80.499243 228.477205,79.2737961 225.877298,78.0022488 L223.058339,76.6134493 C219.787784,75.0098309 216.488352,73.4645766 212.991711,72.3238115 C205.52958,69.8898666 197.854137,68.1753043 190.059777,67.259767 C188.37041,67.0615005 186.743655,66.4913394 185.460262,65.5141761 C184.242065,64.5866523 183.311441,63.3024737 182.887128,61.5955207 C182.33722,59.3864508 182.495251,57.7140037 183.680513,55.7210991 C184.571756,54.2244705 185.846982,53.1871113 187.311265,52.5914244 C188.804038,51.9841473 190.503545,51.840982 192.192876,52.1793876 Z"></path>
                </g>
                <g id="ðŸ–-Ink" transform="translate(47.000000, 241.000000)" fill="#000000">
                    <path d="M337.808766,15 C361.280828,15 374.675545,20.0476268 379.583995,20.4408262 L379.731604,20.4513988 C381.773203,20.5819351 383.604638,20.7526365 385.526143,21.4956895 C392.591677,24.2168704 393.742579,31.6273185 389.619349,36.2975074 C389.330123,45.9612137 390.601118,57.2526079 388.42041,66.9474421 C385.730303,107.818373 366.509247,114.715713 355.583689,117.233056 C350.098392,118.49725 343.5973,119.000317 337.770736,117.665834 C327.83095,117.295312 318.004253,114.183526 309.596667,108.765263 C297.887495,101.213234 289.190683,89.6055398 286.368473,75.8299385 C285.030886,69.2635354 284.405767,62.4288331 285.133692,55.7543104 L285.24159,54.834673 C281.435609,53.014193 277.025154,52.6697779 272.478593,52.5091178 C270.306891,52.4318001 268.166215,52.3625154 266.086586,52.454895 C264.053994,52.6818274 262.04542,52.9840692 260.030842,53.3957608 C257.831119,54.0594879 255.753492,55.1549891 253.834989,56.8901185 L253.702886,59.4225236 C253.342603,65.7485159 252.511953,72.0935866 251.230949,78.3000879 C249.339468,87.4577148 246.297085,96.2036502 239.822013,102.69934 C237.630296,105.97279 234.918171,108.894796 231.625592,111.425193 C219.665224,120.63403 203.415495,124.014921 188.501813,122.74169 C158.225098,120.158074 140.724389,96.1233201 136.69123,85.8501095 L136.45028,85.2277051 C133.536796,77.5902322 131.214914,67.6806815 122.008729,66.0397124 L120.050703,65.6879191 C115.84966,64.8993558 111.973202,63.8015161 109.509939,59.7026747 C108.430093,57.9133226 107.874658,55.9121 107.738551,53.8717164 C106.301426,53.9821703 104.866302,54.0876035 103.436181,54.1900243 C92.0277451,56.6026875 23.600227,58.6483427 18.1383674,58.6483427 C18.1383674,58.6483427 7.63935915,63.0673229 3.20667133,59.6434313 C0.134264704,57.2626491 -0.876527051,54.0896117 0.814797767,50.4948415 C3.36675899,45.0862033 15.1402688,41.832872 20.368158,40.8027483 C20.368158,40.8027483 104.732847,41.5034375 110.804953,40.3521672 C114.561896,36.47825 121.28216,37.0084284 126.897559,36.3959117 C131.5462,33.0812926 138.049294,30.8611705 143.186318,29.3750644 C144.233138,28.9784347 145.26995,28.5948587 146.277739,28.2333734 C155.695116,24.8795934 165.483783,23.1032949 175.421568,22.1493754 C185.669595,21.1753734 195.947646,21.6161846 206.135626,23.0119194 C210.428989,23.5943124 214.682321,24.3474067 218.905629,25.3324541 C226.467802,26.3293627 233.985996,27.9714025 241.550918,29.9193501 L243.064552,30.3129178 C251.030792,32.4014994 259.217205,34.2079217 267.463664,32.7921043 C274.177256,31.6469826 280.633494,29.0632415 286.823569,26.2693175 L287.62946,25.9038016 C301.240122,19.6892673 322.495771,15 337.808766,15 Z M218.086988,37.7223618 C213.065054,36.6178235 210.920374,44.3606372 215.95832,45.4681879 C219.525804,46.252514 222.549376,48.0515396 224.592155,51.0993468 L224.807252,51.4306867 C227.548399,55.792609 234.479828,51.7660647 231.719666,47.3760269 C228.614234,42.4357281 223.788453,38.9755108 218.086988,37.7223618 Z M365.1732,32.9216366 C363.402814,31.6745124 360.723715,32.6003163 359.69591,34.362557 C358.564701,36.303111 359.306135,38.4637159 360.964208,39.7331967 L361.133036,39.8571332 C362.653907,40.9290575 364.135119,42.8505012 364.321131,44.8192514 L364.337546,45.0655335 C364.536702,50.2177028 372.543974,50.24381 372.343817,45.0655335 C372.148664,39.999719 369.215367,35.767329 365.1732,32.9216366 Z"></path>
                </g>
            </g>
        </g>
    </g>
</svg>