<?xml version="1.0" encoding="UTF-8"?>
<svg width="746px" height="1104px" viewBox="0 0 746 1104" version="1.1" xmlns="http://www.w3.org/2000/svg" xmlns:xlink="http://www.w3.org/1999/xlink">
    <title>a person/bust</title>
    <g id="Introduction" stroke="none" stroke-width="1" fill="none" fill-rule="evenodd">
        <g id="a-person/bust" transform="translate(-177.000000, -244.500000)">
            <g id="Group" transform="translate(147.000000, 639.000000)">
                <path d="M764.1471,391.462543 C764.1471,383.37091 752.947199,369.008112 752.9276,361.6786 C762.3436,359.9956 770.215913,347.238629 768.129913,339.249629 C764.454913,336.440629 754.8221,330.9106 750.8381,328.3286 C726.5651,329.0646 735.7901,295.2961 733.0431,278.1311 C730.2771,261.3371 728.2231,243.7771 724.1751,226.8881 C716.9851,213.3741 713.6111,198.2241 706.7391,184.7781 C703.6701,180.3221 698.7101,176.2371 697.2251,171.0601 C682.1911,154.6401 661.4951,144.7981 644.4631,130.8911 C651.0731,128.7751 650.6321,119.8601 650.2051,114.1351 C651.7431,106.6661 650.1001,97.2981 643.2881,93.0901 C640.9861,85.5901 630.9241,82.9721 625.0401,87.7501 C621.1751,70.4271 606.0541,59.9171 590.2141,53.4891 C590.2281,53.4381 590.2411,53.3881 590.2561,53.3371 C574.2811,46.9971 555.133455,43.8364284 539.194251,47.4003642 C547.607837,-46.3483854 475.804968,-49.7897206 439.364213,-41.9113106 C420.724908,-37.8815344 392.757573,-25.3356778 386.404204,-7.894738 C382.8173,1.95184405 372.524103,33.7078534 371.058709,43.8364284 C343.231709,27.9574284 310.9721,7.0191 286.8361,38.9871 C282.0031,44.5581 276.6551,48.6961 269.4231,50.6101 C246.8431,56.4691 216.8731,56.6651 204.0391,79.6831 C196.3681,93.9431 203.2671,103.3391 201.2061,117.6041 C99.5631,188.9831 14.6221,451.9361 33.6941,574.2691 C38.2821,618.0481 60.6821,695.5371 115.9711,685.8761 C144.171011,716.72019 617.495153,716.72019 666.302288,685.8761 C706.477288,696.3841 747.2991,680.1181 764.1471,641.6401 C785.5421,588.8781 762.8691,531.8971 758.8511,477.7721 C756.410921,464.107239 752.779269,453.260001 750.8381,439.270352 C750.029216,433.440874 752.819386,423.742633 750.8381,418.3691 C751.772933,414.871257 764.1471,399.554175 764.1471,391.462543 Z" id="ðŸŽ¨-Background" fill="#FFFFFF"></path>
                <path d="M540.4106,17.1006 C541.5286,21.8876 540.5076,27.2846 540.6946,32.1976 C540.8726,36.8926 541.4266,41.5606 542.2426,46.1866 C550.8246,41.6726 560.9666,41.0926 570.7466,42.5456 C583.3976,44.4256 598.0366,48.5856 607.9516,57.0376 C610.3996,59.1256 612.4276,61.5976 614.1256,64.3226 C616.1636,67.5926 617.4646,71.2866 620.6956,73.6296 C625.6936,77.2546 631.8896,78.6576 636.6946,82.6746 C641.5936,86.7696 644.6346,92.8916 645.2776,99.2096 C645.6206,102.5726 645.0656,105.7166 644.4276,108.9966 C643.8556,111.9476 644.1366,113.1586 644.9136,115.9996 C645.5236,118.2296 644.3596,120.7606 642.4616,121.9906 C646.5306,124.7836 650.5446,127.6626 654.4886,130.6586 C677.4676,148.0986 696.8986,169.8386 710.3686,195.4186 L710.694145,196.05381 L711.07108,196.817567 C714.353726,203.561501 722.942493,223.277858 724.0096,227.7106 C724.7726,230.0256 725.5116,232.3496 726.1986,234.6876 C728.012683,240.884267 729.551156,247.157399 730.826341,253.482348 L731.1676,255.2086 C732.2026,260.5206 733.9836,266.8126 733.6966,272.4746 C736.6796,287.9326 739.3226,303.4556 741.5786,319.0436 C741.8736,321.0856 741.0606,322.7446 739.7986,323.8456 C742.8156,324.3306 745.8136,324.9266 748.7786,325.5276 L750.500991,325.889886 L751.362993,326.080354 C757.53834,327.47311 763.632967,329.501273 767.6776,334.6876 C772.0386,340.2986 772.1276,347.5086 767.7476,353.1586 C764.0286,357.9586 758.5976,360.2386 752.9276,361.6786 C751.8086,361.9586 750.6776,362.2186 749.5476,362.4476 C748.7886,362.6076 748.2886,361.5686 749.0076,361.1686 L750.210872,360.503701 L751.852477,359.604013 C756.126578,357.247886 760.562626,354.588863 762.9276,350.3386 C766.1386,344.5686 763.5976,339.2276 758.0876,336.2986 C753.475007,333.843044 747.769131,333.214265 742.646937,332.375436 L740.531646,332.025987 C735.176557,331.171229 729.713817,330.615861 724.3086,331.2276 C719.5786,331.7676 714.7886,333.3786 710.9676,336.2676 L710.613816,336.545699 L710.248212,336.852994 C706.897652,339.756458 702.079501,346.278691 708.3986,348.1586 C713.2286,349.586517 719.113845,349.231814 724.190206,349.508704 L724.8476,349.5486 C729.0976,349.8386 733.5386,349.8386 737.8376,350.3486 C739.3776,350.5276 740.8986,350.7776 742.3886,351.1286 C746.6586,352.1386 745.1886,357.8186 741.4276,358.2186 C740.5076,358.3186 739.5686,358.3676 738.6276,358.3886 C736.1676,360.2386 732.7676,361.0786 729.8586,362.2276 C727.0786,363.3286 724.2886,364.4186 721.4786,365.4886 C723.8986,365.5986 726.3186,365.7986 728.7286,366.0986 C729.5076,366.1876 729.5176,367.2386 728.7286,367.3186 C722.9276,367.9086 717.1276,368.5486 711.3476,369.3576 C702.3986,370.5986 693.5076,372.2586 684.8186,374.7876 C678.467171,376.644743 672.193345,378.855406 666.108412,381.435603 L664.2676,382.2276 L663.508083,382.559162 C657.985413,384.952816 650.841,387.753889 647.6676,393.0276 C646.0076,395.7776 645.2786,400.0276 647.6186,402.6586 C650.120968,405.492021 655.363233,405.168399 658.868301,405.306333 L659.1486,405.3186 C666.5686,405.6786 673.9976,405.7276 681.4276,405.4686 C696.9976,404.9186 712.5786,403.2186 727.8686,400.2276 C730.6886,399.6786 731.9086,403.9086 729.0686,404.5686 C711.032906,408.758878 692.799661,411.057778 674.29443,411.164801 L672.2676,411.1686 C665.059162,412.546725 657.989592,414.601608 650.979787,416.921261 L649.5786,417.3886 C645.4386,418.7876 638.3686,420.1786 635.9276,424.2876 C634.3086,427.0176 634.8776,428.8886 636.4786,430.1586 C639.2976,432.3886 645.2976,432.8076 648.2176,432.9186 C659.9176,433.3576 671.6276,433.4376 683.3376,433.1876 C689.1886,433.0576 695.0386,432.8486 700.8886,432.5486 C706.6086,432.2486 712.7176,431.3986 718.4176,431.9476 C720.8686,432.1876 721.6886,435.7876 719.0286,436.4586 C711.99897,438.239119 704.1153,438.08344 696.852747,438.310563 L696.0176,438.3386 C688.2176,438.6176 680.4086,438.7386 672.6086,438.7186 C665.913457,438.692029 659.219784,438.556722 652.531988,438.310792 L646.61916,438.076352 L645.571977,438.026249 C642.420888,437.857402 639.2022,437.49432 636.4086,436.1976 C633.8286,440.5176 635.7576,446.3076 639.0876,449.7276 C642.2576,452.9886 646.8286,454.5886 651.2076,455.5886 C651.6186,455.6786 652.0286,455.7676 652.4386,455.8486 C662.0586,457.8076 671.8586,457.6386 680.8586,462.0576 C688.4276,465.7776 695.3586,471.9776 703.8376,473.4476 C711.4176,474.7676 716.9276,471.4286 720.9676,465.2486 C721.1886,464.9086 721.4086,464.5686 721.6186,464.2276 C724.7976,459.1076 727.0876,453.4686 730.4386,448.4476 C732.1486,445.8886 734.0786,443.4286 736.4386,441.4286 C737.4976,440.5176 744.9176,436.5786 746.0786,435.3986 C751.0686,430.2776 746.6486,419.5086 747.9486,413.0886 C749.4676,405.6176 756.0386,402.9886 759.9786,397.1976 C767.4676,386.1786 746.9276,375.8576 753.0686,363.8076 C753.1486,363.6586 753.2476,363.5486 753.3776,363.4776 C753.9176,363.1876 754.7786,363.5486 754.7286,364.2586 C754.0476,373.2386 762.6086,379.4186 765.6986,387.1976 C769.2176,396.0486 763.5976,401.4086 757.8586,407.3186 C750.4976,414.9086 755.6776,423.4086 754.0386,432.5486 C753.8246,433.7466 753.4806,434.8026 753.0336,435.7476 C754.2916,436.5276 755.2616,437.8196 755.4746,439.6236 C757.9986,461.0236 760.7116,482.3576 765.1416,503.4616 L766.089465,507.945345 L767.358506,513.926865 C770.515989,528.887436 773.46333,543.908276 774.0236,559.2026 C775.7826,572.1096 776.4806,585.1246 775.4386,598.1176 C772.2786,637.6686 750.1676,679.0486 709.9976,691.1876 C700.6986,693.9986 690.8376,694.7276 681.2976,692.7586 C678.0286,692.0886 673.4486,690.6076 669.3376,688.3676 C669.5826,691.0036 669.7766,693.6396 669.8576,696.2696 C671.212244,697.778304 671.824852,700.05622 671.053337,702.004858 C667.777549,700.92734 664.799956,699.220672 662.118728,696.885598 L661.6746,696.4906 C660.084991,690.584122 659.619974,684.1216 659.388995,677.899205 L659.3286,676.1286 C659.2676,674.4086 659.2286,672.7186 659.1676,671.0686 C658.8286,660.7986 659.0686,650.5086 659.5976,640.2486 L659.987635,632.695668 C660.881037,615.079006 661.607725,597.503975 661.1186,579.8386 C660.5586,559.5086 658.8186,539.2676 656.6386,519.0486 C655.5076,508.6176 654.2286,498.2086 652.9176,487.7986 C651.8686,479.4186 650.1086,470.3986 650.0786,461.7586 C643.3476,460.3186 636.7386,457.5576 632.5976,451.9086 C628.2076,445.9186 627.5586,438.2586 631.4576,432.1176 C627.6886,426.9586 630.7786,422.0986 635.4386,418.8186 C628.2786,414.8076 624.2886,403.8676 623.2286,396.2586 C622.5076,391.0376 622.2786,383.2276 624.5076,377.3576 C621.3086,377.4686 618.1086,377.7986 614.9086,378.3486 C611.2076,378.9986 607.5786,379.9476 603.9976,381.1286 L602.1849,381.728268 C601.270171,382.0346 600.240457,382.395743 599.2176,382.8186 C605.6886,393.5176 597.3776,403.2186 586.7176,405.9886 C584.6886,406.5176 582.6186,406.8886 580.5286,407.1876 C575.8186,407.8386 571.0076,408.0376 566.3376,408.4686 C557.3986,409.2876 548.4086,410.4586 539.4386,410.8386 C537.4676,410.9286 536.1986,410.0086 535.5976,408.7276 C535.5786,408.7086 535.5686,408.6976 535.5686,408.6786 C535.3586,408.3386 535.2176,407.9776 535.1676,407.5986 C535.1986,407.6286 535.2386,407.6486 535.2676,407.6686 C534.8376,405.2676 536.2786,402.3486 539.4386,401.9986 C552.3886,400.5376 565.5176,400.4686 578.5076,399.3986 L579.340103,399.329465 C583.417531,398.977558 588.220245,398.330535 591.4486,395.7486 C594.4486,393.3486 594.7176,390.2276 593.5176,387.4086 C593.4976,387.4776 593.4786,387.5576 593.4676,387.6286 C593.3776,388.1876 592.6086,388.1686 592.3586,387.7776 C591.6086,386.6386 591.4176,385.5176 591.6086,384.4376 C590.7076,383.3986 589.6186,382.4776 588.4386,381.7676 C583.2076,378.5886 576.3286,377.7186 570.3776,376.7776 C563.8686,375.7486 557.3086,375.2776 550.7386,374.9686 C537.8086,374.3576 524.8376,375.4086 512.1186,377.7276 C511.5876,377.8186 511.3686,377.0786 511.8886,376.9086 C516.8476,375.2676 521.9176,373.8886 527.0476,372.7986 C526.9276,372.7776 526.8086,372.7586 526.6886,372.7276 C526.2386,372.6176 525.9176,372.0686 526.0686,371.6286 C526.0876,371.5576 526.1186,371.4886 526.1486,371.4286 C523.9676,370.4286 523.0586,367.0686 525.6986,365.7086 C533.9276,361.4586 543.5876,359.5376 552.6186,357.7876 C561.2886,356.1176 570.0476,354.9476 578.8186,353.9086 C593.6486,352.1686 609.8186,352.2086 624.0876,347.5276 L624.674373,347.330832 C630.485407,345.326533 637.42237,341.266141 637.8286,334.4086 C638.4276,324.0376 623.0176,326.7386 616.5976,326.9886 C599.0286,327.6586 581.4786,328.8786 563.9886,330.7586 C560.4176,331.1386 556.8476,331.5276 553.2786,331.9286 C547.8086,332.5376 542.3286,333.1786 536.8686,333.8576 C533.8186,334.2386 530.6986,334.7386 527.5586,335.2186 C526.5786,335.4586 525.6186,335.6286 524.6586,335.7186 C524.5876,335.7276 524.5286,335.7086 524.4786,335.6786 C519.9086,336.3186 515.3186,336.8076 510.8586,336.6686 C510.3476,336.6586 510.0286,335.8576 510.5686,335.6176 C516.3286,333.1786 522.7386,331.7386 529.1676,330.6076 C533.1486,327.6386 537.9576,325.2586 541.9086,322.9586 C547.3286,319.7986 553.5386,315.1486 559.6886,313.2586 C562.4576,311.0786 565.5976,309.3286 568.4886,308.1386 C567.6586,306.8486 567.3586,305.0576 567.5076,303.5486 C568.0586,298.1386 572.3886,295.1176 577.3886,294.0576 C578.9386,293.7386 580.7286,293.4986 582.6386,293.4086 C582.6776,292.3986 583.1276,291.4086 584.1276,290.6686 L584.422861,290.444639 L584.632443,290.277516 C587.988965,287.55216 594.651782,279.878802 586.6276,279.3186 C582.3686,279.0176 578.7676,282.1386 575.3776,284.2486 C568.3376,288.6386 561.5286,288.8576 553.4886,287.7676 L549.874321,287.248987 L549.273404,287.167967 C543.460564,286.40532 537.563877,286.30015 534.3186,292.2276 C530.8376,298.5686 529.6186,304.3486 522.5976,307.8386 C515.8886,311.1686 508.4386,311.8286 502.2786,316.4086 C495.6776,321.3076 490.7176,328.1876 485.3186,334.2876 C473.4086,347.7276 459.7786,359.5986 445.7386,370.7586 L443.241053,372.737724 C430.311171,382.955854 416.964661,393.016479 402.4886,400.8886 C402.3886,400.9376 402.2876,400.9586 402.1986,400.9586 C401.8086,400.9186 401.5176,400.4186 401.8686,400.0786 C418.7786,383.6486 438.5586,370.3286 455.9276,354.3386 C463.6276,347.2486 470.9576,339.7876 478.0076,332.0486 C484.1676,325.2586 489.6276,317.6286 496.8086,311.8486 C500.2976,309.0376 504.0686,306.8886 508.2876,305.3886 C512.2286,303.9776 516.6486,303.2776 520.2786,301.1176 C527.3886,296.8986 526.6986,286.8986 533.8086,282.3576 C539.904754,278.463369 547.331344,279.886261 554.090796,280.810462 L554.8986,280.9186 C559.2786,281.4986 563.8086,281.9886 567.9886,280.2586 C572.1276,278.5486 575.4576,275.3486 579.6276,273.6486 C585.4386,271.2586 593.6776,271.8286 596.6586,278.2186 C599.5076,284.3186 595.6186,289.8386 591.0786,293.8886 C597.2676,295.0086 602.6986,297.9986 603.1586,304.0986 C607.6986,303.9476 612.2286,303.7876 616.7676,303.6286 C632.5786,303.0786 648.4676,302.0176 664.2886,302.2986 C663.9276,300.6876 663.7676,299.0276 663.7476,297.3386 C663.7386,296.3986 663.7786,295.4586 663.8476,294.4986 C663.9676,292.8576 665.0476,291.8676 666.6486,291.6976 L670.221802,291.316394 L671.417572,291.197901 C678.112026,290.56476 685.597798,290.431987 690.6986,294.8576 C693.4386,297.2486 695.6486,302.7486 694.3086,306.4186 C697.4276,307.4886 700.3986,308.8576 703.1086,310.5886 C708.4786,308.7876 714.1186,308.9886 719.5176,310.8676 L720.158982,311.0968 C723.997322,312.505938 729.437789,315.175168 731.5236,318.9826 C726.4606,284.6646 719.6376,250.6396 711.0606,217.0256 C705.5856,203.6016 698.6676,190.7706 690.2786,178.9286 C669.1486,149.0886 638.7076,128.5686 611.3686,104.9786 C608.956225,107.63335 606.357803,110.159475 603.927723,112.590471 L602.8976,113.6266 C597.9476,118.6396 592.7846,123.4366 587.5076,128.1016 C576.4786,137.8516 564.8696,146.8506 553.3436,155.9936 C530.1086,174.4266 509.1016,193.9996 491.6236,218.0646 C491.3096,218.4986 490.4386,218.2456 490.6816,217.6686 C502.6696,189.1716 527.5216,167.5066 550.0976,147.4036 C561.9696,136.8326 574.1196,126.5166 585.5346,115.4466 C590.856138,110.285677 596.011523,104.946671 600.87491,99.350143 L602.0846,97.9456 C605.2646,94.2236 612.7106,82.8596 617.6316,91.0586 C618.6626,92.7736 618.6176,94.9676 617.6316,96.6846 C616.2336,99.1246 614.4586,101.4516 612.5176,103.6866 C619.4176,107.4396 626.1756,111.4026 632.7856,115.5976 C632.4056,113.5766 632.5006,111.3426 632.8536,109.1076 L632.96933,108.397659 L633.450746,105.625719 C634.141316,101.539447 634.496383,97.7404261 631.9036,93.7546 C628.6616,88.7686 622.5486,87.2136 617.6786,84.3326 C612.0686,81.0126 609.1386,76.5706 606.1346,70.9326 C600.381681,60.1396405 587.384856,55.8117912 576.214141,52.3395798 L574.8086,51.9036 C564.4866,48.7046 553.3206,46.9926 543.0006,50.0666 C543.9686,54.5726 545.2356,59.0146 546.8186,63.3416 C548.5036,67.9476 552.3526,73.0686 551.9586,78.0436 C551.6866,81.4866 547.5566,85.1666 544.1296,82.5356 C539.2756,78.8116 538.3056,72.7466 537.0046,66.9686 C535.7466,61.3806 534.9436,55.6566 534.6016,49.9396 C534.272537,44.4299125 534.529705,38.9237406 535.209133,33.4515714 L535.730213,29.4327802 L535.856722,28.4994538 C536.42388,24.4370217 537.267328,20.1731937 539.5526,16.9886 C539.7726,16.6826 540.3106,16.6756 540.4106,17.1006 Z M399.5816,-5.7424 C399.6546,-5.4174 399.7056,-5.0964 399.7516,-4.7754 C400.0856,-3.4054 400.2106,-2.0884 400.1696,-0.7654 C400.1896,-0.2884 400.1546,0.1896 400.0656,0.6626 C399.8866,2.2196 399.5116,3.8176 399.0046,5.5646 C397.9256,9.2816 396.6896,12.9536 395.3086,16.5706 C392.5786,23.7236 389.3556,30.5486 385.3716,37.0906 C378.1746,48.9076 369.0256,58.7166 358.2396,67.1956 C360.2866,68.8846 362.2876,70.6416 364.2926,72.3666 C373.9836,80.7066 383.4126,89.4246 392.5456,98.3726 C408.7646,114.2656 424.6576,130.4536 440.1776,147.0296 C447.8326,155.2046 455.3456,163.4866 462.8176,171.8246 L463.062553,172.105151 L463.3274,172.420685 C465.980581,175.629357 471.284503,183.281826 475.2416,182.0526 C477.2396,181.4306 479.3436,178.4496 480.7056,177.0276 L483.21435,174.4116 C484.04835,173.5371 484.8771,172.6576 485.6916,171.7656 C500.2876,155.7736 514.0986,139.1676 527.0666,121.8106 C533.3946,113.3416 539.5116,104.7136 545.4066,95.9356 C548.4366,91.4226 551.4106,86.8696 554.3246,82.2786 C557.1426,77.8386 559.4216,73.0666 563.5746,69.7526 C566.6226,67.3206 570.8456,69.5506 570.0776,73.5376 C568.8676,79.8166 564.5216,85.1266 561.0996,90.4336 C557.6626,95.7666 554.1446,101.0476 550.5476,106.2726 C543.6246,116.3326 536.4016,126.1806 528.9206,135.8306 C522.478267,144.1411 515.756961,152.238169 508.853735,160.171105 L506.9666,162.3306 C499.5416,170.7956 492.2536,179.7816 484.0486,187.5076 C476.7016,194.4266 468.6776,192.4106 461.9846,185.6866 C453.5196,177.1856 445.6606,167.9916 437.5156,159.1806 C421.2396,141.5726 404.7936,124.0986 388.1776,106.8106 L382.715452,101.120798 C376.346575,94.472958 370.003711,87.7833778 363.8266,80.9716 L363.029477,80.0834672 C355.98503,72.158963 348.821673,62.2315636 338.8066,58.2026 C338.0826,57.9116 338.3486,56.8836 339.1306,57.0276 C345.5416,58.2126 350.8936,61.4426 355.8736,65.3016 C360.3496,57.8946 364.3436,50.0866 367.8256,42.1006 L365.591568,41.1305752 C349.607762,34.2239734 331.592197,27.2600776 314.4316,28.3796 C307.5156,28.8296 300.1366,31.4496 295.3616,36.6416 C291.0376,41.3446 288.8786,47.6866 284.9106,52.6956 C280.3656,58.4326 274.4376,61.0146 267.1626,61.2476 L263.625088,61.354862 C259.556341,61.486921 255.654489,61.7003778 251.5276,62.5956 C240.3456,65.0196 228.5566,68.9526 219.1786,75.6696 C215.7766,78.1056 212.2646,81.4556 210.6196,85.1466 C208.9886,88.8036 208.5196,93.0826 208.3606,97.0296 C208.2836,98.9536 208.8606,101.4946 208.3786,103.3356 C208.4336,103.1246 208.4586,103.2366 208.4656,103.4566 C209.9646,104.6386 210.9856,106.6036 211.0966,108.5616 C220.4446,103.6896 230.1216,99.4196 239.9866,95.5706 C250.9706,91.2856 262.2956,87.8516 273.6226,84.5996 C284.7086,81.4186 296.3126,80.1026 307.6136,77.8346 C309.0526,77.5456 309.5526,79.4886 308.2116,80.0046 C296.3336,84.5666 284.8406,89.9746 272.8636,94.2666 C260.8926,98.5576 249.0106,103.2016 237.3866,108.3636 C214.9186,118.3446 193.2156,131.0446 175.5146,148.2756 C158.2266,165.1056 144.8916,185.5506 132.4896,206.1066 C119.9996,226.8076 108.8526,248.2626 98.9176,270.3016 C79.2636,313.9006 64.5256,359.7416 54.8226,406.5656 C45.3796,452.1316 40.1036,499.3246 41.8606,545.8976 C42.6946,568.0176 45.3966,590.1546 51.6806,611.4286 C54.6826,621.5926 58.4406,631.5236 63.1886,641.0046 C68.1956,651.0006 74.9416,659.9046 79.5136,670.0706 C79.8896,670.9066 80.0336,671.7096 80.0126,672.4556 C99.5126,689.3506 130.0346,677.9656 151.1386,667.8786 C199.6986,644.6586 247.3586,619.2486 292.6586,590.0886 C337.3686,561.3076 379.7386,529.1876 421.1086,495.8486 C417.9086,492.5486 415.0876,488.8486 412.6086,485.4986 C407.4886,478.5786 403.6386,470.7386 400.9886,462.5576 C397.8886,452.9776 396.9276,442.7276 397.8086,432.7186 L398.058495,429.88769 C398.901327,420.435699 399.874964,410.843964 401.9486,401.6076 C401.9676,401.4886 402.0586,401.4376 402.1586,401.4376 C402.2576,401.4376 402.3586,401.4986 402.3986,401.6076 C407.9886,419.4986 408.4386,438.7276 414.7176,456.3886 C417.2476,463.4886 421.1676,470.3486 425.8686,476.2386 C427.8986,478.7876 430.2786,480.9986 432.7076,483.1586 C432.8686,482.0576 433.0876,480.9686 433.4176,479.8986 L433.679466,479.051409 C434.004884,478.023254 434.4076,476.879489 434.9676,475.8676 C434.1776,475.6386 433.4086,475.3886 432.6486,475.1076 C432.0476,474.8886 431.9176,473.9186 432.6486,473.7586 C434.6386,473.2986 436.6886,473.0686 438.7786,472.9686 C439.1086,472.9186 439.4276,472.9086 439.7476,472.9286 C443.6586,472.8076 447.6386,473.0886 451.4086,473.1486 C457.9386,473.2486 464.4486,473.3676 470.9676,473.6586 C483.4486,474.1976 497.5376,476.5886 509.8186,473.6876 C520.9786,471.0486 531.9786,463.6076 540.9276,456.6076 C548.7476,450.4886 554.7786,443.2186 561.2676,435.9686 C560.8016,436.041933 560.339156,436.110822 559.878489,436.17497 L555.693889,436.748403 C550.411632,437.453611 544.1411,438.006806 539.9486,435.4686 C538.3476,434.4986 538.8086,432.2986 540.4386,431.6976 C544.7176,430.1286 550.0286,431.4286 554.5876,431.2086 C558.1676,431.0376 561.7886,430.6586 565.3186,429.9186 C566.4786,429.6786 567.6276,429.3986 568.7676,429.0686 C577.1276,426.6586 586.9486,418.1786 580.3086,408.9186 C580.0586,408.5686 580.3376,408.2486 580.6776,408.1876 C580.8286,408.1586 580.9886,408.1876 581.1186,408.2986 C588.6776,414.5576 584.7476,425.7776 577.5976,430.5886 C575.1386,432.2486 572.3586,433.4086 569.4786,434.2586 C570.0286,435.2676 570.1276,436.5086 569.4676,437.6876 C563.8686,447.6686 554.3886,456.4376 545.5076,463.4886 C536.3886,470.7276 525.8686,477.5576 514.5586,480.7586 C501.4976,484.4376 487.1486,481.6686 473.8986,480.4986 C466.7176,479.8676 459.5586,479.1176 452.3886,478.2876 C450.4676,478.0686 448.4786,477.8986 446.4576,477.7086 C448.3586,480.2086 449.8686,483.0886 450.8586,484.8186 C454.0786,490.4376 451.1086,497.8386 444.8686,499.5576 C444.2176,499.7386 443.5476,499.8386 442.8886,499.8576 C441.2076,503.2276 437.2076,505.7086 433.5076,504.4376 C431.8986,503.8886 430.3476,503.1386 428.8586,502.2386 C405.5876,522.6786 381.0876,541.8576 355.8886,559.8386 C309.1586,593.1786 260.1776,623.6286 209.3886,650.3986 C197.9487,656.4286 186.42132,662.2966 174.796254,667.936261 L164.790369,672.759237 C153.715202,678.089241 142.380475,683.3901 130.6186,686.6976 C128.3256,687.3426 125.9246,687.8636 123.4646,688.2626 C123.432748,688.482824 123.424718,688.693661 123.439121,688.895482 C121.227566,689.19029 119.29776,689.23522 117.649876,689.03032 L117.2746,688.9786 C102.8576,689.9866 87.4366,686.4666 78.1616,675.9366 C76.6156,677.0216 74.3616,677.1416 72.3726,675.5806 C62.3696,667.7316 56.4066,655.7816 51.1736,644.3726 C45.8676,632.7996 41.7086,620.7386 38.6526,608.3826 C32.5486,583.7046 30.1276,558.2486 30.0000146,532.8636 C29.5386,435.0446 54.0366,336.3666 96.5886,248.5476 C107.3806,226.2746 119.2766,204.4176 132.4826,183.4806 C145.6526,162.6006 160.9456,143.1956 180.5306,127.9676 C186.1626,123.5896 192.0216,119.5866 198.0646,115.8986 C194.0086,113.8886 192.3976,108.7756 192.1136,104.2336 C191.4836,94.1466 192.6856,82.5256 198.5916,74.0146 C206.8766,62.0746 221.7076,54.7126 235.4596,51.1326 C242.6386,49.2646 250.0646,48.1756 257.4696,47.8076 C261.2876,47.6166 265.2546,48.2446 269.0266,47.8326 C272.3546,47.4706 274.4126,45.4846 276.3266,42.8736 C281.2296,36.1806 284.4216,29.1606 291.4546,24.2546 C298.6706,19.2216 308.0216,17.2956 316.7146,17.8176 C326.8416,18.4266 336.0806,22.4166 344.9996,27.0016 C353.0496,31.1396 360.8636,35.7236 368.4786,40.6136 C369.8746,37.3426 371.1896,34.0466 372.4126,30.7396 C374.7846,24.3276 376.8476,17.7116 378.5216,11.0836 C380.2186,4.3626 379.9706,-4.5134 385.0966,-9.5674 C389.5536,-13.9604 398.1366,-12.2354 399.5816,-5.7424 Z M745.061073,442.721873 L745.0246,442.7296 C734.6566,448.8736 729.6986,464.2276 724.8186,470.9376 C725.2176,473.1876 725.4976,475.4776 726.0476,477.6076 C727.3086,482.4986 728.9576,487.3486 730.8686,492.0086 C734.2286,500.2386 738.4386,508.0786 742.3286,516.0576 C745.4586,522.4746 748.5256,529.0096 750.9116,535.7646 C750.6526,536.0236 750.4136,536.3306 750.2106,536.7116 C747.6226,541.5586 745.5966,540.6056 740.8216,539.5476 L740.8186,539.5376 C738.0876,531.1786 734.1486,523.3286 730.6086,515.3076 L729.747645,513.349296 L728.896262,511.389436 C725.938429,504.524984 723.23924,497.597 721.6676,490.2386 C720.6676,485.5486 720.2576,480.7276 720.1986,475.9376 C717.6086,478.0686 714.4976,479.5986 710.5786,480.1876 C702.1911,481.454564 694.594576,476.201766 687.760606,471.987399 L686.220345,471.044543 C681.942058,468.441649 677.700183,466.03685 672.7676,464.8076 C667.1676,463.4086 661.3776,463.4086 655.6886,462.6976 C655.0076,462.6076 654.3186,462.5176 653.6276,462.4086 C655.8476,469.7586 656.8776,477.7386 658.1986,485.0986 C660.0386,495.4186 661.5386,505.8286 662.9786,516.2086 C665.7786,536.3286 667.7286,556.6076 668.7176,576.8986 C669.675933,596.544433 669.193293,616.116794 668.482506,635.756505 L668.127969,645.334094 C667.843813,653.132091 667.609908,660.9386 667.7476,668.7386 C668.1276,668.7676 668.5076,668.8286 668.8886,668.9186 C672.8286,669.8386 675.5176,673.8576 679.1186,675.6486 C686.7176,679.4286 695.8986,679.3786 703.9886,677.4686 C722.3886,673.1076 737.6886,660.2676 747.7676,644.5786 C759.8686,625.7586 764.3086,603.6076 764.1676,581.4476 C764.001142,556.508225 759.962222,532.662804 754.339618,508.58576 L753.9786,507.0486 C749.2464,486.99021 746.2823,442.912509 745.061073,442.721873 Z M229.82,392.4012 C229.925,399.1092 227.197,406.2842 225.698,412.8022 C224.084,419.8252 222.474,426.8482 220.842,433.8682 L219.374128,440.157419 C218.152,445.398629 216.947,450.643629 215.867,455.9172 C214.979,460.2522 214.607,465.9652 213.152,470.7442 C230.459,463.7442 247.793,456.8152 265.098,449.8382 C286.418,441.2392 307.838,432.8782 329.208,424.4182 C350.498,415.9982 371.668,406.4182 393.389,399.2182 C398.559,397.4982 402.059,405.7482 397.108,408.0372 C375.048,418.2682 351.708,426.2782 329.108,435.2392 L296.416409,448.217294 C266.447422,460.108431 236.458,471.942133 206.318,483.3682 C185.788,491.1492 165.338,499.1592 144.678,506.5482 C134.828,510.0692 124.889,513.3992 115.088,517.0482 C106.878,520.1082 97.998,524.6492 94.958,533.4682 C94.798,533.9282 94.168,533.7392 94.238,533.2682 C95.468,524.7282 101.809,519.3882 108.958,515.3482 C118.446696,509.972548 128.868624,506.06079 138.884799,501.749723 L140.248,501.1592 C160.701,492.2392 181.319,483.6802 201.998,475.2642 C201.793,474.7642 201.672,474.2282 201.663,473.6682 L201.604,473.6842 C201.228,469.8612 202.981,466.4522 204.242,462.8962 L207.859,452.6922 C210.269,445.8972 212.431,439.0182 214.658,432.1622 C216.987,424.9962 219.338,417.8372 221.685,410.6772 C223.673,404.6122 225.009,397.3832 228.41,391.9622 C228.82,391.3092 229.95,391.6762 229.82,392.4012 Z M628.1086,377.3186 L627.850877,378.62105 C627.550328,380.144044 627.2686,381.6786 627.1986,383.2186 C626.9976,387.2486 627.4576,391.2776 628.5286,395.1686 C629.5786,399.0176 631.0476,402.7386 633.1386,406.1486 C635.1186,409.3576 637.9886,411.8786 639.8186,415.1686 C640.0076,415.5176 640.1276,415.8676 640.1776,416.2086 C640.8776,415.9186 641.5686,415.6586 642.2386,415.4476 C647.8186,413.6786 653.5176,412.1976 659.2976,411.0886 L658.380916,411.026517 L657.789054,410.97936 C648.131653,410.162139 639.019907,407.002667 640.9886,395.7276 C642.1022,389.35416 647.104952,385.080125 652.466759,382.050839 L653.1386,381.6786 C653.4276,381.5176 653.7286,381.3576 654.0176,381.2186 C649.1676,380.3986 645.6486,379.3886 639.6986,378.3886 C635.8376,377.7386 631.9676,377.3786 628.1086,377.3186 Z M186.918,238.4361 C196.414,257.6221 203.558,278.0221 208.948,298.7191 C211.550133,308.714167 213.758524,318.807669 215.534148,328.98172 L216.117334,332.379003 L216.448779,334.222859 C218.107459,343.29146 220.214163,353.11561 217.778,361.9641 C216.983,364.8551 212.183,365.9991 210.839,362.8721 C206.785,353.4321 207.355,342.5811 206.18,332.4791 C204.945,321.8791 203.26,311.3291 201.16,300.8661 C197.126393,280.761707 191.464624,261.127817 185.153821,241.641639 L184.45,239.4771 C183.914,238.0341 186.248,237.0831 186.918,238.4361 Z M551.9176,324.2676 C549.0876,325.5986 546.2576,326.8186 543.7576,328.0376 C543.5686,328.1386 543.3686,328.2276 543.1676,328.3286 C545.9976,327.8486 548.8376,327.3986 551.6776,326.9776 C551.6486,326.0576 551.7386,325.1486 551.9176,324.2676 Z M662.6516,314.6586 C662.226457,314.7966 661.850539,315.019824 661.523845,315.325755 L661.3646,315.4856 C660.9746,315.8486 660.6986,316.2776 660.5376,316.7726 C660.2876,317.2506 660.1716,317.7646 660.1926,318.3146 L660.3356,319.3776 C660.5256,320.0556 660.8686,320.6426 661.3646,321.1426 L662.1736,321.7676 C662.7196,322.08435 663.303116,322.263287 663.924147,322.305082 L664.1926,322.3146 L665.002422,322.314959 C665.465437,322.299233 665.900743,322.184743 666.3096,321.9696 C666.734743,321.8316 667.110661,321.60911 667.437355,321.30276 L667.5966,321.1426 C667.9876,320.7796 668.2626,320.3506 668.4236,319.8556 C668.638743,319.446743 668.753233,319.010702 668.768959,318.548107 L668.7686,318.3146 L668.6256,317.2506 C668.45935,316.65735 668.175959,316.133006 667.775428,315.676899 L667.5966,315.4856 L666.7876,314.8596 C666.2416,314.543725 665.658084,314.364897 665.037053,314.323786 L664.7686,314.3146 L664.1926,314.3146 C663.6416,314.2936 663.1276,314.4086 662.6516,314.6586 Z M636.6326,313.3056 C634.5076,313.6956 633.3026,316.2716 633.8396,318.2246 C634.433794,320.387503 636.488965,321.348846 638.5532,321.053342 L638.7596,321.0196 C641.1776,320.5746 643.5466,320.7466 645.8496,321.5956 C647.8756,322.3436 650.2326,320.7586 650.7696,318.8016 C651.3836,316.5676 650.0106,314.6316 647.9756,313.8816 C644.3256,312.5336 640.4106,312.6096 636.6326,313.3056 Z M215.3215,171.2508 C220.16021,178.341445 223.181125,187.767782 226.161529,195.871022 L226.4595,196.6768 C229.6275,205.1928 232.6835,213.7758 235.5335,222.4048 C241.2225,239.6298 248.6365,257.6548 250.0065,275.8508 C250.2595,279.2088 245.1205,280.5548 243.6305,277.5788 C239.3495,269.0218 237.0475,260.1018 234.5145,250.9278 C232.0985,242.1788 229.5815,233.4598 227.0635,224.7398 C224.5465,216.0248 222.1115,207.2838 219.6325,198.5578 C217.2215,190.0688 213.8645,180.6298 213.3125,171.7948 C213.2405,170.6468 214.7655,170.4348 215.3215,171.2508 Z M324.5308,114.1655 C330.9898,118.6485 336.2798,125.2055 341.7458,130.8135 C347.2908,136.5035 352.7618,142.2465 358.1818,148.0565 C367.2388,157.7665 376.1318,167.6355 385.3168,177.2275 C403.6208,196.3425 424.3278,213.9325 449.5898,222.9165 C455.7028,225.0905 453.0248,234.9005 446.8978,232.6805 C421.0588,223.3125 399.6538,205.9915 380.7728,186.3965 C370.9938,176.2485 362.0208,165.4045 353.2718,154.3675 C349.177633,149.2025 345.114022,144.021528 341.108166,138.79044 L338.7118,135.6455 C333.6748,128.9995 327.5118,122.3755 323.8258,114.8715 C323.6188,114.4495 324.0728,113.8485 324.5308,114.1655 Z" id="ðŸ–-Ink" fill="#000000"></path>
            </g>
            <g id="Group" transform="translate(372.000000, 180.000000)">
                <path d="M405.529013,304.0028 C403.376385,285.0878 406.162248,245.551755 406.348916,243.1498 C407.529013,227.96486 400.41409,168.0018 386.964001,173.5268 C364.401836,155.6658 334.351022,151.7218 306.251187,149.8378 C247.883535,145.9238 185.791007,154.9088 140.720927,194.1888 C118.432063,214.5878 96.7327917,244.2568 98.4770041,275.1488 C78.2261251,304.4308 49.6769304,344.5978 74.9086413,378.8308 C83.4853758,389.7678 97.1166413,393.8408 107.891042,402.1238 C129.562677,419.6038 143.15914,444.6898 165.036517,462.0658 C222.996777,514.1488 321.413756,525.0288 378.359629,465.7888 C422.394851,422.8848 415.274585,358.6988 407.529013,304.0028 C402.321608,267.230281 409.728568,340.904005 405.529013,304.0028 Z" id="ðŸŽ¨-Background" fill="#FFFFFF"></path>
                <path d="M228.28,69.6251 C243.89,66.4751 259.919,64.5151 275.86,65.1051 L277.089049,65.1528353 C289.08318,65.6321989 304.2728,66.6926 314.736,73.6671 C315.338,73.0631 316.306,72.7531 317.184,73.1721 C329.618,79.1071 343.294,83.3981 356.386,87.6621 C369.418,91.9051 382.938,94.7061 396.597,95.8351 C401.736,96.2601 406.134,101.8091 402.88,106.7861 C402.106,107.9721 401.352,109.1701 400.601,110.3711 C401.857,110.2401 403.113,110.1051 404.369,109.9781 C408.502,109.5621 412.631,113.9731 412.386,117.9971 C412.233,120.5281 411.96,123.0291 411.556,125.5001 C413.13,125.4671 414.695,125.7031 416.207,126.3421 C423.863,129.5751 423.33,138.6941 422.757,145.6321 C421.963,155.2601 418.362,165.4581 411.676,172.6641 C416.668,177.8491 420.202,184.0411 422.31,191.3951 C423.839,196.7651 424.69,202.4851 424.27,208.0751 L424.136106,209.748718 C423.616704,215.81496 422.584043,222.531057 418.22,226.8951 C415.98,229.1451 413.22,229.9651 410.589,229.7051 C412.18,243.6851 413.2,257.7451 414.16,271.7551 L414.610164,278.451254 C416.751634,310.831125 418.360968,343.421874 417.94,375.8551 C417.549,406.1651 411.56,435.5851 392.97,460.1951 C376.039,482.6051 351.73,499.1251 324.23,505.4051 C309.41,508.7951 294.28,509.0351 279.28,506.8751 C272.009,505.8251 264.69,504.2151 257.789,501.6751 C250.15,498.8551 244.66,494.7051 239.52,488.4851 C237.089,485.5351 238.259,479.2551 243.1,479.8451 C250.421364,480.732827 257.104917,481.802786 264.123901,483.968204 L265.129,484.2851 C272.12,486.5251 279.36,488.1951 286.669,488.9051 C301.64,490.3551 316.839,488.8951 331.18,484.3551 C354.53,476.9551 374.64,460.4651 387.53,439.7451 C402.83,415.1851 404.56,387.3051 404.339,359.0651 C404.102158,328.076679 403.094357,297.070308 401.449091,266.114008 L401.169,260.9551 C400.299,245.0251 399.459,229.0851 398.72,213.1451 C398.49,208.1451 398.14,203.1051 397.509,198.1151 C391.74,194.7351 386.57,190.0751 383.2,184.3251 C376.43,187.1251 369.31,189.1451 362.759,190.7551 C347.585,194.4871 331.831,195.3931 316.386,193.0561 C312.22,194.7771 307.971,196.2901 303.657,197.5921 C302.491,198.1091 301.325,198.6171 300.16,199.1151 C289.759,203.5651 279.209,207.3351 268.23,210.0951 L265.532832,210.7677 C259.754979,212.192021 253.479091,213.594645 247.33,214.0351 C246.32,214.4251 245.23,214.7551 244.039,215.0451 C238.44,216.4051 232.629,216.8351 226.89,216.3551 C221.299,215.8851 217.259,210.2351 220.339,204.9451 C222.589,201.0851 224.86,197.2351 227.15,193.3951 C219.18,196.7151 210.95,199.4751 202.65,201.8151 C194.27,204.1751 185.77,206.1651 177.259,207.9951 C172.709,208.9651 168.14,209.8251 163.6,210.7951 C160.35,211.4851 155.36,211.8451 152.709,213.9851 C149.78,216.3351 148.95,221.8151 147.839,225.1951 C146.379,229.5851 145.009,233.9951 143.759,238.4551 C141.27,247.3551 139.23,256.3851 137.65,265.5051 C136.07,274.6351 135.009,283.8551 134.419,293.1051 C133.83,302.3451 134.089,311.6451 133.14,320.8451 C132.629,325.7251 127.39,328.2351 123.52,324.8251 C123.066,324.4251 122.608444,324.020656 122.155333,323.611767 L121.48,322.9951 C118.169,319.9951 114.959,316.8151 112.31,313.2351 C111.83,312.5751 111.37,311.8851 110.94,311.1851 C110.87,311.1851 110.81,311.1651 110.74,311.1151 L110.005491,310.562389 C101.917841,304.542573 88.4061,296.6944 80.52,306.6951 C78.007037,309.881026 76.7204252,313.937734 75.652584,317.851461 L73.7788699,324.855888 C72.5669111,329.428433 71.4263333,334.026433 70.759,338.7051 C69.249,349.1851 70.009,361.2651 77.22,369.6651 C80.1,373.0251 84.07,375.4251 88.499,376.0551 C90.97,376.3951 93.41,375.9751 95.86,375.6651 C98.35,375.3551 100.749,375.8551 103.24,375.6151 C107.2,375.2251 108.93,379.9651 107.45,382.9451 C106.65,384.5451 105.709,385.9251 104.64,387.0951 C105.499,387.8351 106.32,388.6351 107.11,389.4751 C109.45,390.2251 111.549,391.8351 113.12,393.9651 C114.39,395.6851 115.049,397.5551 115.16,399.5251 C115.299,400.0151 115.419,400.5151 115.53,401.0251 L117.675384,404.50702 C118.14724,405.2707 118.6174,406.0251 119.089,406.7651 C124.549,415.3651 130.61,422.6451 138.14,429.5051 C145.39,436.1051 153.259,442.0151 160.07,449.0951 L160.87233,449.935719 C167.221992,456.626658 173.915,464.726181 171.43,474.4551 C170.79,476.9551 167.299,478.7551 165.02,477.0651 C157.69,471.6251 153.999,463.0051 147.78,456.4051 C141.379,449.6051 134.289,443.4951 127.87,436.7151 C121.799,430.3151 117.009,423.0651 113.4,415.0851 C111.959,416.6751 109.86,417.8051 106.95,418.2451 C101.95,418.9951 97.289,416.0651 95.11,411.7351 C93.709,412.3551 92.28,412.9151 90.839,413.3551 C83.259,415.6751 78.49,407.2451 81.35,401.0151 C82.879,397.6751 84.789,394.7751 87.16,392.3351 C79.749,391.3151 72.209,387.4851 67.339,382.7051 C55.12,370.6951 53.44,352.6451 56.19,336.5951 C57.65,328.0851 60.169,319.4751 63.44,311.4851 C64.009,310.0951 64.62,308.6951 65.289,307.3151 C64.919,307.3051 64.539,307.1451 64.299,306.8351 C62.089,303.8151 59.4,301.3451 57.759,297.9651 C56.249,294.8651 54.57,291.7251 53.379,288.4951 C50.93,281.8851 49.73,274.4251 48.93,267.4351 C47.28,253.1251 47.919,238.9051 50.11,224.6851 C53.839,200.4651 62.847,177.2871 76.118,156.9491 C75.3954286,156.569386 74.7029796,156.111059 74.057656,155.569083 L73.739,155.2911 L73.221,154.8231 C69.434,151.3961 69.761,144.9731 73.221,141.5021 L74.313776,140.406708 C75.69752,139.03202 76.8908,137.9429 79.126,136.4461 C79.456,136.2251 79.793,136.0171 80.134,135.8231 C78.964,133.6611 78.558,131.1331 79.373,128.3441 C82.213,118.6281 96.193,118.9721 105.054,123.2091 C114.857,114.4601 125.727,106.8651 137.509,100.7151 C165.57,86.0751 197.299,75.8651 228.28,69.6251 Z M83.2303,325.5251 C88.4703,323.8151 95.4303,327.4051 100.1403,329.5651 C106.1103,332.3051 111.1903,336.3551 116.1103,340.6351 C118.5603,342.7751 118.9993,346.2751 118.3903,349.2651 C118.3293,349.5651 118.2703,349.8751 118.1993,350.1851 C117.5493,353.3751 113.9893,355.8851 110.8393,355.7951 C104.2493,355.6151 101.1103,349.9251 97.3793,345.1051 C96.9403,345.8851 96.3903,346.6051 95.7093,347.1451 L95.2494503,347.505047 C93.7013661,348.68386 91.9947545,349.626009 89.9493,349.5351 C88.4993,349.4651 87.1103,349.0951 85.8293,348.4251 C82.6293,346.7351 81.2203,342.5951 82.0893,339.2251 C82.6293,337.1051 83.8693,335.4451 85.4893,334.2951 L84.885427,333.882073 C83.5933615,332.982864 82.4149255,332.034968 81.4965498,330.636103 L81.2893,330.3051 L81.3693,330.3051 C80.3693,328.5851 81.0203,326.2451 83.2303,325.5251 Z" id="ðŸ–-Ink" fill="#000000"></path>
            </g>
            <g id="ðŸ–-Ink" transform="translate(531.000000, 366.000000)" fill="#000000">
                <path d="M89.2809,215.2897 C101.5269,201.0597 122.1519,200.0687 139.2369,203.6267 C150.2009,205.9107 160.8759,209.7147 172.0119,211.1247 C177.2129,211.7837 182.4699,211.9807 187.7089,211.8837 C192.8549,211.7887 198.0089,210.7517 203.1369,210.9447 C203.9249,210.9737 204.2229,212.0087 203.5399,212.4297 C196.5049,216.7507 187.0279,218.1367 178.7179,218.9817 C178.7439,219.5967 178.7809,220.1967 178.8659,220.7057 C179.0929,222.0627 179.2999,223.4107 179.4669,224.7767 C179.8439,227.8577 180.2659,230.9287 180.6869,234.0037 C181.516795,240.055489 181.77767,246.298448 183.237237,252.245371 L183.4919,253.2337 C183.8299,254.4837 183.9069,255.6107 183.7939,256.6267 L184.1319,256.4737 L185.199446,255.956578 L185.8994,255.626324 C188.453377,254.442356 190.890307,253.58007 193.8929,253.8677 C196.1789,254.0857 198.0979,255.6447 198.1119,258.0857 C198.1689,269.0407 183.4049,272.5637 174.9599,274.6607 L172.483329,275.270827 C161.733854,277.892639 150.758471,280.190986 139.7029,280.7407 C121.9609,281.6217 102.0239,276.7277 90.4179,262.3367 C79.5889,248.9097 77.6039,228.8577 89.2809,215.2897 Z M169.8519,261.3177 C167.990247,244.824324 147.721699,243.917424 141.89098,254.376684 C139.303586,239.797591 101.0279,253.1167 104.0209,256.0147 C115.3649,267.0007 132.5799,267.9897 147.3789,265.9577 C154.9159,264.9227 162.4589,263.2377 169.8519,261.3177 Z M147.357836,218.088143 L142.262146,217.35466 L140.25517,217.078243 C127.622512,215.386527 113.415976,214.512736 103.0299,222.6117 C99.2379,225.5677 97.1039,229.4237 96.3069,233.5657 C106.134483,232.109117 115.998199,230.997888 125.891114,230.07257 L128.5899,229.8247 C134.7799,229.2667 140.9669,228.6787 147.1509,228.0617 L151.546025,227.616825 L155.9389,227.1607 C157.4849,226.9987 167.9039,226.4657 169.8629,226.8237 C170.0719,225.0637 170.3449,221.2547 170.7869,219.5417 C163.384817,219.792922 156.014934,219.243162 148.656305,218.26511 L147.357836,218.088143 Z M170.814304,144.367155 C178.365682,148.9572 189.871664,159.660291 181.748119,171.039573 C172.185929,181.073062 158.418535,169.568982 151.634201,164.366134 C145.343449,160.333898 138.275437,170.704507 144.112,175.412823 C193.135736,211.708059 213.030606,145.567387 174.633685,138.970386 C170.406047,138.243425 168.835891,142.947174 170.814304,144.367155 Z M184.3281,163.7039 L184.691094,163.506534 L184.813753,163.432311 C185.026054,163.294896 184.890861,163.309612 184.408176,163.476897 L184.0461,163.6069 L184.0461,163.8629 C184.1391,163.8059 184.2381,163.7629 184.3281,163.7039 Z M87.6173265,122.923881 L87.6160369,122.698595 C87.6300369,116.321808 91.344047,101.762216 100.524157,101.762216 C106.259134,101.762216 109.740999,111.67102 110.343765,121.885575 L110.3647,122.302049 C110.630879,128.652574 108.888163,142.533717 100.524157,142.533717 C92.071637,142.533717 87.7042339,129.386546 87.6173265,122.923881 L87.6173265,122.923881 Z M222.772617,120.923881 L222.773907,120.698595 C222.759907,114.321808 219.045897,99.7622157 209.865787,99.7622157 C204.274184,99.7622157 200.824446,109.181773 200.096775,119.120207 L200.046179,119.885575 C199.684084,126.021693 201.313826,140.533717 209.865787,140.533717 C218.318307,140.533717 222.68571,127.386546 222.772617,120.923881 L222.772617,120.923881 Z M92.8551,58.2848 C100.3471,57.1458 110.2681,59.3098 113.7611,66.9278 C115.3171,70.3218 113.4741,74.0748 109.5511,74.2628 C100.0701,74.7168 91.5671,72.6068 83.2451,78.7718 C79.6636455,81.4254364 76.6525752,85.0995686 74.1257849,88.7644236 L73.1697217,90.1591512 L72.3778765,91.3082057 C70.6621184,93.8307086 69.0374104,96.5713104 69.2911,99.6148 C69.3661,100.5158 68.4451,101.3708 67.5701,101.3348 C62.1161,101.1108 61.5291,94.2728 62.2461,90.1658 C63.5801,82.5438 67.2691,75.3888 72.3821,69.6258 C77.7521,63.5738 84.8411,59.5038 92.8551,58.2848 Z M196.0443,67.5353 C201.2103,64.2143 207.8183,62.9383 213.8703,63.4273 C225.8033,64.3883 245.8223,74.5323 243.1873,89.1073 C242.3743,93.6023 236.1223,95.9743 232.4383,93.4803 C228.4773,90.7993 227.5133,86.6323 224.5653,83.1283 C222.2133,80.3293 219.2323,78.3043 216.0403,76.5793 C212.894089,74.8778263 209.25425,73.8467903 205.683661,73.4708871 L205.0893,73.4143 C202.9403,73.2313 192.0883,73.2803 193.6813,77.3313 C193.9933,78.1243 192.8133,78.7523 192.2713,78.1523 C188.9443,74.4723 192.7123,69.6773 196.0443,67.5353 Z"></path>
            </g>
            <g id="ðŸ–-Ink" transform="translate(419.000000, 421.000000)" fill="#000000">
                <path d="M367.0895,74.4323 C364.2615,82.1283 359.9575,90.1403 354.6945,96.6173 C333.4005,114.6493 312.7095,104.6653 302.2035,80.2263 C298.2115,62.9553 308.8105,44.3513 320.0415,31.6463 C336.2615,15.3893 362.7325,23.9213 370.1905,43.2473 C370.6435,45.7513 370.9175,48.2493 371.0485,50.7393 C370.8935,58.8303 369.9185,65.7453 367.0895,73.4323 M162.4095,58.9113 C190.4615,25.5443 242.9415,23.7603 241.6025,75.1153 C235.5765,140.1193 134.1055,124.1643 162.4095,58.9113 Z M375.9125,31.0763 C374.9295,29.4113 373.8385,27.8003 372.6475,26.2593 C372.2075,25.9973 371.9545,23.6733 370.3365,23.5013 C348.7095,-0.3577 310.7165,13.1793 296.9885,36.9533 C294.4815,39.9593 292.4365,43.4783 290.9285,47.1963 C277.4025,44.7153 261.6335,45.1973 249.0535,50.3063 C236.5795,17.7343 198.8145,14.8263 173.9275,28.7433 C158.4485,36.3563 148.4115,52.2993 133.3575,61.0573 C97.9685,63.6043 59.9875,55.6753 25.2375,64.5523 C-2.1685,70.2503 20.7415,84.1273 25.3375,74.8663 C58.1005,65.1863 96.9155,73.3663 130.9325,71.1853 C134.4695,77.1683 141.2525,82.0643 148.0125,81.8553 C155.3135,146.5763 249.6975,135.8443 252.9535,78.3113 C256.6465,72.4723 261.2395,66.8843 267.8135,63.2463 C270.3305,62.7253 272.7615,62.0483 274.9835,61.0003 C278.7815,60.4643 284.6335,62.0743 288.1275,65.2363 C300.0965,137.0523 369.0515,128.6883 381.3745,65.7743 C381.6195,65.5243 382.3045,64.5863 382.8305,63.0813 C387.0485,57.5043 397.3745,55.4313 395.7245,46.0163 C394.2555,36.5993 382.3635,36.7113 375.9125,31.0763 Z"></path>
            </g>
        </g>
    </g>
</svg>